<?xml version="1.0" encoding="utf-8"?>
<!-- Generator: Adobe Illustrator 24.1.0, SVG Export Plug-In . SVG Version: 6.00 Build 0)  -->
<svg version="1.1" id="Layer_1" xmlns="http://www.w3.org/2000/svg" xmlns:xlink="http://www.w3.org/1999/xlink" x="0px" y="0px"
	 viewBox="0 0 720 360" style="enable-background:new 0 0 720 360;" xml:space="preserve">
<style type="text/css">
	.st0{fill:#FFFFFF;}
	.st1{fill:none;stroke:#EBEBEB;stroke-width:1.07;stroke-linejoin:round;stroke-miterlimit:10;}
	.st2{fill:none;stroke:#000000;stroke-width:1.07;stroke-linejoin:round;stroke-miterlimit:10;}
	.st3{fill:none;stroke:#F6D55C;stroke-width:2.13;stroke-linejoin:round;stroke-miterlimit:10;stroke-dasharray:19.92,8.54;}
	.st4{fill:none;stroke:#0054C1;stroke-width:2.13;stroke-linejoin:round;stroke-miterlimit:10;stroke-dasharray:19.92,8.54;}
	.st5{fill:none;stroke:#3CAEA3;stroke-width:2.13;stroke-linejoin:round;stroke-miterlimit:10;stroke-dasharray:19.92,8.54;}
	.st6{fill:none;stroke:#444444;stroke-width:2.13;stroke-linejoin:round;stroke-miterlimit:10;stroke-dasharray:19.92,8.54;}
	.st7{fill:none;stroke:#9090F0;stroke-width:2.13;stroke-linejoin:round;stroke-miterlimit:10;stroke-dasharray:19.92,8.54;}
	.st8{fill:none;stroke:#20639B;stroke-width:2.13;stroke-linejoin:round;stroke-miterlimit:10;stroke-dasharray:19.92,8.54;}
	.st9{fill:none;stroke:#ED553B;stroke-width:2.13;stroke-linejoin:round;stroke-miterlimit:10;stroke-dasharray:19.92,8.54;}
	.st10{fill:none;stroke:#F6D55C;stroke-width:2.13;stroke-linejoin:round;stroke-miterlimit:10;}
	.st11{fill:none;stroke:#0054C1;stroke-width:2.13;stroke-linejoin:round;stroke-miterlimit:10;}
	.st12{fill:none;stroke:#3CAEA3;stroke-width:2.13;stroke-linejoin:round;stroke-miterlimit:10;}
	.st13{fill:none;stroke:#444444;stroke-width:2.13;stroke-linejoin:round;stroke-miterlimit:10;}
	.st14{fill:none;stroke:#9090F0;stroke-width:2.13;stroke-linejoin:round;stroke-miterlimit:10;}
	.st15{fill:none;stroke:#20639B;stroke-width:2.13;stroke-linejoin:round;stroke-miterlimit:10;}
	.st16{fill:none;stroke:#ED553B;stroke-width:2.13;stroke-linejoin:round;stroke-miterlimit:10;}
	.st17{fill:none;stroke:#F6D55C;stroke-width:1.07;stroke-linecap:round;stroke-linejoin:round;stroke-miterlimit:10;}
	.st18{fill:none;}
	.st19{fill:#7F6C30;}
	.st20{font-family:'Merriweather-Regular';}
	.st21{font-size:10px;}
	.st22{fill:none;stroke:#0054C1;stroke-width:1.07;stroke-linecap:round;stroke-linejoin:round;stroke-miterlimit:10;}
	.st23{fill:#0054C1;}
	.st24{fill:none;stroke:#3CAEA3;stroke-width:1.07;stroke-linecap:round;stroke-linejoin:round;stroke-miterlimit:10;}
	.st25{fill:#3CAEA3;}
	.st26{fill:none;stroke:#444444;stroke-width:1.07;stroke-linecap:round;stroke-linejoin:round;stroke-miterlimit:10;}
	.st27{fill:#444444;}
	.st28{fill:none;stroke:#9090F0;stroke-width:1.07;stroke-linecap:round;stroke-linejoin:round;stroke-miterlimit:10;}
	.st29{fill:#9090F0;}
	.st30{fill:none;stroke:#20639B;stroke-width:1.07;stroke-linecap:round;stroke-linejoin:round;stroke-miterlimit:10;}
	.st31{fill:#20639B;}
	.st32{fill:#ED553B;}
	.st33{fill:#4D4D4D;}
	.st34{font-size:9.6px;}
	.st35{font-size:12px;}
	.st36{fill:#C1002A;}
	.st37{font-size:13px;}
	.st38{font-size:18px;}
	.st39{fill:#5B717F;}
</style>
<rect y="0" class="st0" width="720" height="360"/>
<line class="st1" x1="46.4" y1="299.8" x2="677.5" y2="299.8"/>
<line class="st1" x1="46.4" y1="268.5" x2="677.5" y2="268.5"/>
<line class="st1" x1="46.4" y1="227.1" x2="677.5" y2="227.1"/>
<line class="st1" x1="46.4" y1="195.8" x2="677.5" y2="195.8"/>
<line class="st1" x1="46.4" y1="164.5" x2="677.5" y2="164.5"/>
<line class="st1" x1="46.4" y1="123.1" x2="677.5" y2="123.1"/>
<line class="st1" x1="46.4" y1="91.8" x2="677.5" y2="91.8"/>
<line class="st1" x1="46.4" y1="60.5" x2="677.5" y2="60.5"/>
<line class="st1" x1="46.4" y1="306.7" x2="46.4" y2="50.9"/>
<line class="st1" x1="177.9" y1="306.7" x2="177.9" y2="50.9"/>
<line class="st1" x1="309.4" y1="306.7" x2="309.4" y2="50.9"/>
<line class="st1" x1="440.8" y1="306.7" x2="440.8" y2="50.9"/>
<line class="st1" x1="572.3" y1="306.7" x2="572.3" y2="50.9"/>
<line class="st2" x1="46.4" y1="306.7" x2="677.5" y2="306.7"/>
<line class="st2" x1="46.4" y1="306.7" x2="46.4" y2="50.9"/>
<polyline class="st3" points="559.2,112.9 572.3,114.8 585.5,118 598.6,121.7 611.7,129.6 "/>
<polyline class="st4" points="611.7,99 624.9,102.5 638,107.3 651.2,111.6 664.3,119.2 "/>
<polyline class="st5" points="611.7,96.6 624.9,100.3 638,102.5 651.2,107.3 664.3,114.3 "/>
<polyline class="st6" points="519.7,103.9 532.9,106.7 546,109 559.2,113.6 572.3,118.7 "/>
<polyline class="st7" points="572.3,104 585.5,107.7 598.6,109.6 611.7,113.3 624.9,119.4 "/>
<polyline class="st8" points="572.3,115.7 585.5,116.6 598.6,118.9 611.7,127 624.9,131.9 "/>
<polyline class="st9" points="519.7,160.5 532.9,163.9 546,166.5 559.2,171.1 572.3,179.2 "/>
<polyline class="st10" points="46.4,306.7 59.6,299.8 72.7,275.4 85.9,262.5 99,257.1 112.2,234.1 125.3,218.9 138.4,209.2 
	151.6,196.4 164.7,186 177.9,171.5 191,160.5 204.2,156.8 217.3,147.1 230.5,135.3 243.6,132.9 256.8,127.7 269.9,123.8 
	283.1,119.4 296.2,114.8 309.4,112.7 322.5,112.8 335.6,107.1 348.8,102.6 362,101 375.1,100.8 388.2,99 401.4,97.2 414.5,96.9 
	427.7,99.4 440.8,101.5 454,102.8 467.1,101.9 480.3,104.2 493.4,107.1 506.6,108 519.7,106.7 532.9,108.4 546,110.5 "/>
<polyline class="st11" points="46.4,275.4 59.6,257.1 72.7,232.6 85.9,218.9 99,204.3 112.2,188.6 125.3,178.4 138.4,170.3 
	151.6,159 164.7,149.5 177.9,140.7 191,135.9 204.2,129 217.3,119.3 230.5,108.8 243.6,101.4 256.8,95.9 269.9,87.6 283.1,80.7 
	296.2,77.6 309.4,74.3 322.5,72.6 335.6,70.4 348.8,66.7 362,66.8 375.1,66.1 388.2,63.6 401.4,62.1 414.5,61.3 427.7,62.1 
	440.8,64.2 454,65.3 467.1,66.7 480.3,69.7 493.4,73.4 506.6,75.9 519.7,79 532.9,82.2 546,84.9 559.2,88.8 572.3,91.2 585.5,93.2 
	598.6,97.4 "/>
<polyline class="st12" points="46.4,275.4 59.6,259.7 72.7,250.2 85.9,246.1 99,224.6 112.2,215.8 125.3,205.1 138.4,202 
	151.6,187.6 164.7,183 177.9,171.8 191,165.5 204.2,155.7 217.3,147.9 230.5,137.6 243.6,129.9 256.8,120.5 269.9,108.9 
	283.1,101.3 296.2,99.4 309.4,93.5 322.5,88.7 335.6,85.9 348.8,82.4 362,81.2 375.1,80.2 388.2,77.6 401.4,75.2 414.5,75.3 
	427.7,75.1 440.8,75.5 454,76.9 467.1,78 480.3,78.3 493.4,80.1 506.6,82.2 519.7,82.8 532.9,84.3 546,86.8 559.2,87.3 572.3,89.2 
	585.5,93.7 598.6,93.5 "/>
<polyline class="st13" points="46.4,265.4 59.6,252.4 72.7,240.5 85.9,232.6 99,224.6 112.2,217.8 125.3,204.3 138.4,195.2 
	151.6,182.5 164.7,170.3 177.9,152.9 191,140.2 204.2,134.2 217.3,128 230.5,121 243.6,113.3 256.8,106.7 269.9,104.4 283.1,102.2 
	296.2,97.6 309.4,94.3 322.5,92 335.6,91 348.8,91.7 362,92.2 375.1,92.7 388.2,92.4 401.4,93.6 414.5,93.9 427.7,95.9 440.8,95.9 
	454,96.1 467.1,95.5 480.3,98.4 493.4,98.9 506.6,102.5 "/>
<polyline class="st14" points="46.4,288.4 59.6,275.4 72.7,265.4 85.9,252.4 99,244.1 112.2,231.1 125.3,219.9 138.4,209.2 
	151.6,199.8 164.7,188.6 177.9,182 191,171.5 204.2,164.2 217.3,158.2 230.5,146 243.6,135.9 256.8,133.5 269.9,123.8 283.1,116.3 
	296.2,110.5 309.4,104.3 322.5,101.4 335.6,99 348.8,92.4 362,90.4 375.1,89.2 388.2,88.1 401.4,86.4 414.5,85.6 427.7,84.6 
	440.8,84.9 454,85.3 467.1,84.3 480.3,85.4 493.4,86.7 506.6,89.5 519.7,92 532.9,95.5 546,98.2 559.2,102 "/>
<polyline class="st15" points="46.4,275.4 59.6,254.7 72.7,242.3 85.9,228.4 99,217.8 112.2,207.5 125.3,205.1 138.4,194.5 
	151.6,187.6 164.7,180.6 177.9,173.4 191,164.5 204.2,156.5 217.3,149.8 230.5,139.2 243.6,131.5 256.8,128.9 269.9,123.5 
	283.1,120.7 296.2,117.3 309.4,112.2 322.5,111.5 335.6,109.5 348.8,104.3 362,102.9 375.1,99.5 388.2,98.2 401.4,98 414.5,97.8 
	427.7,98.2 440.8,100.9 454,102.2 467.1,106.1 480.3,106.4 493.4,109 506.6,110.5 519.7,110 532.9,111.3 546,113.1 559.2,113.5 "/>
<polyline class="st16" points="46.4,283.7 59.6,268.5 72.7,257.1 85.9,238.8 99,225.8 112.2,219.9 125.3,212.8 138.4,206.7 
	151.6,199.1 164.7,189.2 177.9,182.5 191,174.6 204.2,171.8 217.3,166.1 230.5,162.9 243.6,159 256.8,154.4 269.9,152.2 
	283.1,150.5 296.2,144.9 309.4,140.9 322.5,140.7 335.6,137.8 348.8,137.4 362,139.2 375.1,140.7 388.2,143.7 401.4,147.1 
	414.5,145.6 427.7,147.9 440.8,151.9 454,150 467.1,150.5 480.3,150.2 493.4,152.6 506.6,155.7 "/>
<line class="st17" x1="611.7" y1="199.1" x2="611.7" y2="129.6"/>
<rect x="570" y="199.3" class="st18" width="83.5" height="13.1"/>
<text transform="matrix(1 0 0 1 572.6357 208.0514)" class="st19 st20 st21">East Of England</text>
<line class="st22" x1="654.2" y1="137.4" x2="664.3" y2="119.2"/>
<rect x="634" y="137.6" class="st18" width="39.9" height="13.1"/>
<text transform="matrix(1 0 0 1 634.9307 146.3214)" class="st23 st20 st21">London</text>
<line class="st24" x1="651.5" y1="63.9" x2="666.7" y2="114.3"/>
<rect x="624.9" y="50.9" class="st18" width="47.2" height="13.1"/>
<text transform="matrix(1 0 0 1 625.3752 59.5848)" class="st25 st20 st21">Midlands</text>
<line class="st26" x1="572.3" y1="61.3" x2="572.3" y2="118.7"/>
<rect x="471" y="50.9" class="st18" width="127.6" height="13.1"/>
<text transform="matrix(1 0 0 1 472.031 59.5848)" class="st27 st20 st21">North East And Yorkshire</text>
<line class="st28" x1="624.9" y1="81.7" x2="624.9" y2="119.4"/>
<rect x="585.4" y="68.6" class="st18" width="58.3" height="13.1"/>
<text transform="matrix(1 0 0 1 586.4705 77.3155)" class="st29 st20 st21">North West</text>
<line class="st30" x1="624.9" y1="161.4" x2="624.9" y2="131.9"/>
<rect x="616.3" y="161.4" class="st18" width="57.1" height="13.1"/>
<text transform="matrix(1 0 0 1 618.5801 170.1212)" class="st31 st20 st21">South East</text>
<rect x="542.2" y="182.5" class="st18" width="60.1" height="13.1"/>
<text transform="matrix(1 0 0 1 544.3408 191.171)" class="st32 st20 st21">South West</text>
<text transform="matrix(1 0 0 1 37.26 303.35)" class="st33 st20 st34">1</text>
<text transform="matrix(1 0 0 1 35.75 272.04)" class="st33 st20 st34">2</text>
<text transform="matrix(1 0 0 1 35.78 230.67)" class="st33 st20 st34">5</text>
<rect x="31.1" y="191" class="st18" width="10.4" height="11"/>
<text transform="matrix(1 0 0 1 31.0898 199.36)" class="st33 st20 st34">10</text>
<text transform="matrix(1 0 0 1 29.57 168.06)" class="st33 st20 st34">20</text>
<rect x="29.6" y="118.3" class="st18" width="11.9" height="11"/>
<text transform="matrix(1 0 0 1 29.6099 126.6798)" class="st33 st20 st34">50</text>
<rect x="24.9" y="87" class="st18" width="16.6" height="11"/>
<text transform="matrix(1 0 0 1 24.9199 95.38)" class="st33 st20 st34">100</text>
<rect x="23.4" y="55.7" class="st18" width="18.1" height="11"/>
<text transform="matrix(1 0 0 1 23.3999 64.0802)" class="st33 st20 st34">200</text>
<text transform="matrix(1 0 0 1 43.33 318.8)" class="st33 st20 st34">0</text>
<rect x="172.7" y="310.4" class="st18" width="10.4" height="11"/>
<text transform="matrix(1 0 0 1 172.6899 318.7999)" class="st33 st20 st34">10</text>
<text transform="matrix(1 0 0 1 303.4 318.8)" class="st33 st20 st34">20</text>
<rect x="435.1" y="310.4" class="st18" width="11.6" height="11"/>
<text transform="matrix(1 0 0 1 435.0596 318.7999)" class="st33 st20 st34">30</text>
<rect x="566.1" y="310.4" class="st18" width="12.4" height="11"/>
<text transform="matrix(1 0 0 1 566.1299 318.7999)" class="st33 st20 st34">40</text>
<text transform="matrix(1 0 0 1 266.03 333.05)" class="st20 st35">Number of days since 10th death</text>
<rect x="46.4" y="30.6" class="st18" width="588.8" height="14.9"/>
<text transform="matrix(1 0 0 1 46.4199 41.8805)" class="st36 st20 st37">Rolling weekly average of new hospital deaths. Dashed line means data is likely to be revised</text>
<rect x="46.4" y="6.2" class="st18" width="564.3" height="20.6"/>
<text transform="matrix(1 0 0 1 46.4199 21.8805)" class="st20 st38">Deaths increased faster in London, and may have peaked earlier</text>
<text transform="matrix(1 0 0 1 46.42 348.9)" class="st39 st20 st34">Source: NHS England</text>
</svg>
