<?xml version="1.0" encoding="utf-8"?>
<!-- Generator: Adobe Illustrator 24.1.0, SVG Export Plug-In . SVG Version: 6.00 Build 0)  -->
<svg version="1.1" id="Layer_1" xmlns="http://www.w3.org/2000/svg" xmlns:xlink="http://www.w3.org/1999/xlink" x="0px" y="0px"
	 viewBox="0 0 898.7 443.2" style="enable-background:new 0 0 898.7 443.2;" xml:space="preserve">
<style type="text/css">
	.st0{fill:#FFFFFF;}
	.st1{fill:#FFFFFF;stroke:#000000;stroke-miterlimit:10;}
	.st2{fill:none;stroke:#000000;stroke-miterlimit:10;}
	.st3{stroke:#000000;stroke-miterlimit:10;}
	.st4{fill:#CCCCCC;stroke:#ADADAD;stroke-miterlimit:10;}
</style>
<rect x="693.3" y="418.7" class="st0" width="24" height="24"/>
<path d="M716.8,419.2v23h-23v-23H716.8 M717.8,418.2h-25v25h25V418.2z"/>
<rect x="663.3" y="418.7" class="st0" width="24" height="24"/>
<path d="M686.8,419.2v23h-23v-23H686.8 M687.8,418.2h-25v25h25V418.2z"/>
<rect x="633.3" y="418.7" class="st0" width="24" height="24"/>
<path d="M656.8,419.2v23h-23v-23H656.8 M657.8,418.2h-25v25h25V418.2z"/>
<rect x="603.3" y="418.7" class="st0" width="24" height="24"/>
<path d="M626.8,419.2v23h-23v-23H626.8 M627.8,418.2h-25v25h25V418.2z"/>
<rect x="872.3" y="193.7" class="st0" width="24" height="24"/>
<path d="M895.8,194.2v23h-23v-23H895.8 M896.8,193.2h-25v25h25V193.2z"/>
<rect x="842.3" y="193.7" class="st0" width="24" height="24"/>
<path d="M865.8,194.2v23h-23v-23H865.8 M866.8,193.2h-25v25h25V193.2z"/>
<rect x="812.3" y="193.7" class="st0" width="24" height="24"/>
<path d="M835.8,194.2v23h-23v-23H835.8 M836.8,193.2h-25v25h25V193.2z"/>
<rect x="782.3" y="193.7" class="st0" width="24" height="24"/>
<path d="M805.8,194.2v23h-23v-23H805.8 M806.8,193.2h-25v25h25V193.2z"/>
<rect x="752.3" y="193.7" class="st0" width="24" height="24"/>
<path d="M775.8,194.2v23h-23v-23H775.8 M776.8,193.2h-25v25h25V193.2z"/>
<rect x="722.3" y="193.7" class="st0" width="24" height="24"/>
<path d="M745.8,194.2v23h-23v-23H745.8 M746.8,193.2h-25v25h25V193.2z"/>
<rect x="692.3" y="193.7" class="st0" width="24" height="24"/>
<path d="M715.8,194.2v23h-23v-23H715.8 M716.8,193.2h-25v25h25V193.2z"/>
<rect x="662.3" y="193.7" class="st0" width="24" height="24"/>
<path d="M685.8,194.2v23h-23v-23H685.8 M686.8,193.2h-25v25h25V193.2z"/>
<rect x="632.3" y="193.7" class="st0" width="24" height="24"/>
<path d="M655.8,194.2v23h-23v-23H655.8 M656.8,193.2h-25v25h25V193.2z"/>
<rect x="602.3" y="193.7" class="st0" width="24" height="24"/>
<path d="M625.8,194.2v23h-23v-23H625.8 M626.8,193.2h-25v25h25V193.2z"/>
<rect x="873.3" y="373.7" class="st0" width="24" height="24"/>
<path d="M896.8,374.2v23h-23v-23H896.8 M897.8,373.2h-25v25h25V373.2z"/>
<rect x="843.3" y="373.7" class="st0" width="24" height="24"/>
<path d="M866.8,374.2v23h-23v-23H866.8 M867.8,373.2h-25v25h25V373.2z"/>
<rect x="813.3" y="373.7" class="st0" width="24" height="24"/>
<path d="M836.8,374.2v23h-23v-23H836.8 M837.8,373.2h-25v25h25V373.2z"/>
<rect x="783.3" y="373.7" class="st0" width="24" height="24"/>
<path d="M806.8,374.2v23h-23v-23H806.8 M807.8,373.2h-25v25h25V373.2z"/>
<rect x="753.3" y="373.7" class="st0" width="24" height="24"/>
<path d="M776.8,374.2v23h-23v-23H776.8 M777.8,373.2h-25v25h25V373.2z"/>
<rect x="723.3" y="373.7" class="st0" width="24" height="24"/>
<path d="M746.8,374.2v23h-23v-23H746.8 M747.8,373.2h-25v25h25V373.2z"/>
<rect x="693.3" y="373.7" class="st0" width="24" height="24"/>
<path d="M716.8,374.2v23h-23v-23H716.8 M717.8,373.2h-25v25h25V373.2z"/>
<rect x="663.3" y="373.7" class="st0" width="24" height="24"/>
<path d="M686.8,374.2v23h-23v-23H686.8 M687.8,373.2h-25v25h25V373.2z"/>
<rect x="633.3" y="373.7" class="st0" width="24" height="24"/>
<path d="M656.8,374.2v23h-23v-23H656.8 M657.8,373.2h-25v25h25V373.2z"/>
<rect x="603.3" y="373.7" class="st0" width="24" height="24"/>
<path d="M626.8,374.2v23h-23v-23H626.8 M627.8,373.2h-25v25h25V373.2z"/>
<rect x="872.3" y="148.7" class="st0" width="24" height="24"/>
<path d="M895.8,149.2v23h-23v-23H895.8 M896.8,148.2h-25v25h25V148.2z"/>
<rect x="842.3" y="148.7" class="st0" width="24" height="24"/>
<path d="M865.8,149.2v23h-23v-23H865.8 M866.8,148.2h-25v25h25V148.2z"/>
<rect x="812.3" y="148.7" class="st0" width="24" height="24"/>
<path d="M835.8,149.2v23h-23v-23H835.8 M836.8,148.2h-25v25h25V148.2z"/>
<rect x="782.3" y="148.7" class="st0" width="24" height="24"/>
<path d="M805.8,149.2v23h-23v-23H805.8 M806.8,148.2h-25v25h25V148.2z"/>
<rect x="752.3" y="148.7" class="st0" width="24" height="24"/>
<path d="M775.8,149.2v23h-23v-23H775.8 M776.8,148.2h-25v25h25V148.2z"/>
<rect x="722.3" y="148.7" class="st0" width="24" height="24"/>
<path d="M745.8,149.2v23h-23v-23H745.8 M746.8,148.2h-25v25h25V148.2z"/>
<rect x="692.3" y="148.7" class="st0" width="24" height="24"/>
<path d="M715.8,149.2v23h-23v-23H715.8 M716.8,148.2h-25v25h25V148.2z"/>
<rect x="662.3" y="148.7" class="st0" width="24" height="24"/>
<path d="M685.8,149.2v23h-23v-23H685.8 M686.8,148.2h-25v25h25V148.2z"/>
<rect x="632.3" y="148.7" class="st0" width="24" height="24"/>
<path d="M655.8,149.2v23h-23v-23H655.8 M656.8,148.2h-25v25h25V148.2z"/>
<rect x="602.3" y="148.7" class="st0" width="24" height="24"/>
<path d="M625.8,149.2v23h-23v-23H625.8 M626.8,148.2h-25v25h25V148.2z"/>
<rect x="873.3" y="328.7" class="st0" width="24" height="24"/>
<path d="M896.8,329.2v23h-23v-23H896.8 M897.8,328.2h-25v25h25V328.2z"/>
<rect x="843.3" y="328.7" class="st0" width="24" height="24"/>
<path d="M866.8,329.2v23h-23v-23H866.8 M867.8,328.2h-25v25h25V328.2z"/>
<rect x="813.3" y="328.7" class="st0" width="24" height="24"/>
<path d="M836.8,329.2v23h-23v-23H836.8 M837.8,328.2h-25v25h25V328.2z"/>
<rect x="783.3" y="328.7" class="st0" width="24" height="24"/>
<path d="M806.8,329.2v23h-23v-23H806.8 M807.8,328.2h-25v25h25V328.2z"/>
<rect x="753.3" y="328.7" class="st0" width="24" height="24"/>
<path d="M776.8,329.2v23h-23v-23H776.8 M777.8,328.2h-25v25h25V328.2z"/>
<rect x="723.3" y="328.7" class="st0" width="24" height="24"/>
<path d="M746.8,329.2v23h-23v-23H746.8 M747.8,328.2h-25v25h25V328.2z"/>
<rect x="693.3" y="328.7" class="st0" width="24" height="24"/>
<path d="M716.8,329.2v23h-23v-23H716.8 M717.8,328.2h-25v25h25V328.2z"/>
<rect x="663.3" y="328.7" class="st0" width="24" height="24"/>
<path d="M686.8,329.2v23h-23v-23H686.8 M687.8,328.2h-25v25h25V328.2z"/>
<rect x="633.3" y="328.7" class="st0" width="24" height="24"/>
<path d="M656.8,329.2v23h-23v-23H656.8 M657.8,328.2h-25v25h25V328.2z"/>
<rect x="603.3" y="328.7" class="st0" width="24" height="24"/>
<path d="M626.8,329.2v23h-23v-23H626.8 M627.8,328.2h-25v25h25V328.2z"/>
<rect x="872.3" y="103.7" class="st0" width="24" height="24"/>
<path d="M895.8,104.2v23h-23v-23H895.8 M896.8,103.2h-25v25h25C896.8,128.2,896.8,103.2,896.8,103.2z"/>
<rect x="842.3" y="103.7" class="st0" width="24" height="24"/>
<path d="M865.8,104.2v23h-23v-23H865.8 M866.8,103.2h-25v25h25C866.8,128.2,866.8,103.2,866.8,103.2z"/>
<rect x="812.3" y="103.7" class="st0" width="24" height="24"/>
<path d="M835.8,104.2v23h-23v-23H835.8 M836.8,103.2h-25v25h25C836.8,128.2,836.8,103.2,836.8,103.2z"/>
<rect x="782.3" y="103.7" class="st0" width="24" height="24"/>
<path d="M805.8,104.2v23h-23v-23H805.8 M806.8,103.2h-25v25h25C806.8,128.2,806.8,103.2,806.8,103.2z"/>
<rect x="752.3" y="103.7" class="st0" width="24" height="24"/>
<path d="M775.8,104.2v23h-23v-23H775.8 M776.8,103.2h-25v25h25C776.8,128.2,776.8,103.2,776.8,103.2z"/>
<rect x="722.3" y="103.7" class="st0" width="24" height="24"/>
<path d="M745.8,104.2v23h-23v-23H745.8 M746.8,103.2h-25v25h25C746.8,128.2,746.8,103.2,746.8,103.2z"/>
<rect x="692.3" y="103.7" class="st0" width="24" height="24"/>
<path d="M715.8,104.2v23h-23v-23H715.8 M716.8,103.2h-25v25h25C716.8,128.2,716.8,103.2,716.8,103.2z"/>
<rect x="662.3" y="103.7" class="st0" width="24" height="24"/>
<path d="M685.8,104.2v23h-23v-23H685.8 M686.8,103.2h-25v25h25C686.8,128.2,686.8,103.2,686.8,103.2z"/>
<rect x="632.3" y="103.7" class="st0" width="24" height="24"/>
<path d="M655.8,104.2v23h-23v-23H655.8 M656.8,103.2h-25v25h25C656.8,128.2,656.8,103.2,656.8,103.2z"/>
<rect x="602.3" y="103.7" class="st0" width="24" height="24"/>
<path d="M625.8,104.2v23h-23v-23H625.8 M626.8,103.2h-25v25h25C626.8,128.2,626.8,103.2,626.8,103.2z"/>
<rect x="873.3" y="283.7" class="st0" width="24" height="24"/>
<path d="M896.8,284.2v23h-23v-23H896.8 M897.8,283.2h-25v25h25V283.2z"/>
<rect x="843.3" y="283.7" class="st0" width="24" height="24"/>
<path d="M866.8,284.2v23h-23v-23H866.8 M867.8,283.2h-25v25h25V283.2z"/>
<rect x="813.3" y="283.7" class="st0" width="24" height="24"/>
<path d="M836.8,284.2v23h-23v-23H836.8 M837.8,283.2h-25v25h25V283.2z"/>
<rect x="783.3" y="283.7" class="st0" width="24" height="24"/>
<path d="M806.8,284.2v23h-23v-23H806.8 M807.8,283.2h-25v25h25V283.2z"/>
<rect x="753.3" y="283.7" class="st0" width="24" height="24"/>
<path d="M776.8,284.2v23h-23v-23H776.8 M777.8,283.2h-25v25h25V283.2z"/>
<rect x="723.3" y="283.7" class="st0" width="24" height="24"/>
<path d="M746.8,284.2v23h-23v-23H746.8 M747.8,283.2h-25v25h25V283.2z"/>
<rect x="693.3" y="283.7" class="st0" width="24" height="24"/>
<path d="M716.8,284.2v23h-23v-23H716.8 M717.8,283.2h-25v25h25V283.2z"/>
<rect x="663.3" y="283.7" class="st0" width="24" height="24"/>
<path d="M686.8,284.2v23h-23v-23H686.8 M687.8,283.2h-25v25h25V283.2z"/>
<rect x="633.3" y="283.7" class="st0" width="24" height="24"/>
<path d="M656.8,284.2v23h-23v-23H656.8 M657.8,283.2h-25v25h25V283.2z"/>
<rect x="603.3" y="283.7" class="st0" width="24" height="24"/>
<path d="M626.8,284.2v23h-23v-23H626.8 M627.8,283.2h-25v25h25V283.2z"/>
<rect x="872.3" y="58.7" class="st0" width="24" height="24"/>
<path d="M895.8,59.2v23h-23v-23H895.8 M896.8,58.2h-25v25h25V58.2z"/>
<rect x="842.3" y="58.7" class="st0" width="24" height="24"/>
<path d="M865.8,59.2v23h-23v-23H865.8 M866.8,58.2h-25v25h25V58.2z"/>
<rect x="812.3" y="58.7" class="st0" width="24" height="24"/>
<path d="M835.8,59.2v23h-23v-23H835.8 M836.8,58.2h-25v25h25V58.2z"/>
<rect x="782.3" y="58.7" class="st0" width="24" height="24"/>
<path d="M805.8,59.2v23h-23v-23H805.8 M806.8,58.2h-25v25h25V58.2z"/>
<rect x="752.3" y="58.7" class="st0" width="24" height="24"/>
<path d="M775.8,59.2v23h-23v-23H775.8 M776.8,58.2h-25v25h25V58.2z"/>
<rect x="722.3" y="58.7" class="st0" width="24" height="24"/>
<path d="M745.8,59.2v23h-23v-23H745.8 M746.8,58.2h-25v25h25V58.2z"/>
<rect x="692.3" y="58.7" class="st0" width="24" height="24"/>
<path d="M715.8,59.2v23h-23v-23H715.8 M716.8,58.2h-25v25h25V58.2z"/>
<rect x="662.3" y="58.7" class="st0" width="24" height="24"/>
<path d="M685.8,59.2v23h-23v-23H685.8 M686.8,58.2h-25v25h25V58.2z"/>
<rect x="632.3" y="58.7" class="st0" width="24" height="24"/>
<path d="M655.8,59.2v23h-23v-23H655.8 M656.8,58.2h-25v25h25V58.2z"/>
<rect x="602.3" y="58.7" class="st0" width="24" height="24"/>
<path d="M625.8,59.2v23h-23v-23H625.8 M626.8,58.2h-25v25h25V58.2z"/>
<rect x="873.3" y="238.7" class="st0" width="24" height="24"/>
<path d="M896.8,239.2v23h-23v-23L896.8,239.2 M897.8,238.2h-25v25h25V238.2z"/>
<rect x="843.3" y="238.7" class="st0" width="24" height="24"/>
<path d="M866.8,239.2v23h-23v-23L866.8,239.2 M867.8,238.2h-25v25h25V238.2z"/>
<rect x="813.3" y="238.7" class="st0" width="24" height="24"/>
<path d="M836.8,239.2v23h-23v-23L836.8,239.2 M837.8,238.2h-25v25h25V238.2z"/>
<rect x="783.3" y="238.7" class="st0" width="24" height="24"/>
<path d="M806.8,239.2v23h-23v-23L806.8,239.2 M807.8,238.2h-25v25h25V238.2z"/>
<rect x="753.3" y="238.7" class="st0" width="24" height="24"/>
<path d="M776.8,239.2v23h-23v-23L776.8,239.2 M777.8,238.2h-25v25h25V238.2z"/>
<rect x="723.3" y="238.7" class="st0" width="24" height="24"/>
<path d="M746.8,239.2v23h-23v-23L746.8,239.2 M747.8,238.2h-25v25h25V238.2z"/>
<rect x="693.3" y="238.7" class="st0" width="24" height="24"/>
<path d="M716.8,239.2v23h-23v-23L716.8,239.2 M717.8,238.2h-25v25h25V238.2z"/>
<rect x="663.3" y="238.7" class="st0" width="24" height="24"/>
<path d="M686.8,239.2v23h-23v-23L686.8,239.2 M687.8,238.2h-25v25h25V238.2z"/>
<rect x="633.3" y="238.7" class="st0" width="24" height="24"/>
<path d="M656.8,239.2v23h-23v-23L656.8,239.2 M657.8,238.2h-25v25h25V238.2z"/>
<rect x="603.3" y="238.7" class="st0" width="24" height="24"/>
<path d="M626.8,239.2v23h-23v-23L626.8,239.2 M627.8,238.2h-25v25h25V238.2z"/>
<rect x="872.3" y="13.7" class="st0" width="24" height="24"/>
<path d="M895.8,14.2v23h-23v-23L895.8,14.2 M896.8,13.2h-25v25h25V13.2z"/>
<rect x="842.3" y="13.7" class="st0" width="24" height="24"/>
<path d="M865.8,14.2v23h-23v-23L865.8,14.2 M866.8,13.2h-25v25h25V13.2z"/>
<rect x="812.3" y="13.7" class="st0" width="24" height="24"/>
<path d="M835.8,14.2v23h-23v-23L835.8,14.2 M836.8,13.2h-25v25h25V13.2z"/>
<rect x="782.3" y="13.7" class="st0" width="24" height="24"/>
<path d="M805.8,14.2v23h-23v-23L805.8,14.2 M806.8,13.2h-25v25h25V13.2z"/>
<rect x="752.3" y="13.7" class="st0" width="24" height="24"/>
<path d="M775.8,14.2v23h-23v-23L775.8,14.2 M776.8,13.2h-25v25h25V13.2z"/>
<rect x="722.3" y="13.7" class="st0" width="24" height="24"/>
<path d="M745.8,14.2v23h-23v-23L745.8,14.2 M746.8,13.2h-25v25h25V13.2z"/>
<rect x="692.3" y="13.7" class="st0" width="24" height="24"/>
<path d="M715.8,14.2v23h-23v-23L715.8,14.2 M716.8,13.2h-25v25h25V13.2z"/>
<rect x="662.3" y="13.7" class="st0" width="24" height="24"/>
<path d="M685.8,14.2v23h-23v-23L685.8,14.2 M686.8,13.2h-25v25h25V13.2z"/>
<rect x="632.3" y="13.7" class="st0" width="24" height="24"/>
<path d="M655.8,14.2v23h-23v-23L655.8,14.2 M656.8,13.2h-25v25h25V13.2z"/>
<rect x="602.3" y="13.7" class="st0" width="24" height="24"/>
<path d="M625.8,14.2v23h-23v-23L625.8,14.2 M626.8,13.2h-25v25h25V13.2z"/>
<rect x="571.3" y="418.7" class="st0" width="24" height="24"/>
<path d="M594.8,419.2v23h-23v-23H594.8 M595.8,418.2h-25v25h25V418.2z"/>
<rect x="541.3" y="418.7" class="st0" width="24" height="24"/>
<path d="M564.8,419.2v23h-23v-23H564.8 M565.8,418.2h-25v25h25V418.2z"/>
<rect x="511.4" y="418.7" class="st0" width="24" height="24"/>
<path d="M534.8,419.2v23h-23v-23H534.8 M535.8,418.2h-25v25h25V418.2z"/>
<rect x="481.4" y="418.7" class="st0" width="24" height="24"/>
<path d="M504.9,419.2v23h-23v-23H504.9 M505.9,418.2h-25v25h25V418.2z"/>
<rect x="451.4" y="418.7" class="st0" width="24" height="24"/>
<path d="M474.9,419.2v23h-23v-23H474.9 M475.9,418.2h-25v25h25V418.2z"/>
<rect x="421.4" y="418.7" class="st0" width="24" height="24"/>
<path d="M444.9,419.2v23h-23v-23H444.9 M445.9,418.2h-25v25h25V418.2z"/>
<rect x="391.4" y="418.7" class="st0" width="24" height="24"/>
<path d="M414.9,419.2v23h-23v-23H414.9 M415.9,418.2h-25v25h25V418.2z"/>
<rect x="361.4" y="418.7" class="st0" width="24" height="24"/>
<path d="M384.9,419.2v23h-23v-23H384.9 M385.9,418.2h-25v25h25V418.2z"/>
<rect x="331.4" y="418.7" class="st0" width="24" height="24"/>
<path d="M354.9,419.2v23h-23v-23H354.9 M355.9,418.2h-25v25h25V418.2z"/>
<rect x="301.4" y="418.7" class="st0" width="24" height="24"/>
<path d="M324.9,419.2v23h-23v-23H324.9 M325.9,418.2h-25v25h25V418.2z"/>
<rect x="271.4" y="418.7" class="st0" width="24" height="24"/>
<path d="M294.9,419.2v23h-23v-23H294.9 M295.9,418.2h-25v25h25V418.2z"/>
<rect x="241.4" y="418.7" class="st0" width="24" height="24"/>
<path d="M264.9,419.2v23h-23v-23H264.9 M265.9,418.2h-25v25h25V418.2z"/>
<rect x="211.4" y="418.7" class="st0" width="24" height="24"/>
<path d="M234.9,419.2v23h-23v-23H234.9 M235.9,418.2h-25v25h25V418.2z"/>
<rect x="181.4" y="418.7" class="st0" width="24" height="24"/>
<path d="M204.9,419.2v23h-23v-23H204.9 M205.9,418.2h-25v25h25V418.2z"/>
<rect x="151.4" y="418.7" class="st0" width="24" height="24"/>
<path d="M174.9,419.2v23h-23v-23H174.9 M175.9,418.2h-25v25h25V418.2z"/>
<rect x="121.3" y="418.7" class="st0" width="24" height="24"/>
<path d="M144.9,419.2v23h-23v-23H144.9 M145.9,418.2h-25v25h25V418.2z"/>
<rect x="91.3" y="418.7" class="st0" width="24" height="24"/>
<path d="M114.8,419.2v23h-23v-23H114.8 M115.8,418.2h-25v25h25V418.2z"/>
<rect x="61.3" y="418.7" class="st0" width="24" height="24"/>
<path d="M84.8,419.2v23h-23v-23H84.8 M85.8,418.2h-25v25h25V418.2z"/>
<rect x="31.4" y="418.7" class="st0" width="24" height="24"/>
<path d="M54.8,419.2v23h-23v-23H54.8 M55.8,418.2h-25v25h25V418.2z"/>
<rect x="1.4" y="418.7" class="st0" width="24" height="24"/>
<path d="M24.9,419.2v23h-23v-23H24.9 M25.9,418.2h-25v25h25V418.2z"/>
<rect x="571.3" y="373.7" class="st0" width="24" height="24"/>
<path d="M594.8,374.2v23h-23v-23H594.8 M595.8,373.2h-25v25h25V373.2z"/>
<rect x="541.3" y="373.7" class="st0" width="24" height="24"/>
<path d="M564.8,374.2v23h-23v-23H564.8 M565.8,373.2h-25v25h25V373.2z"/>
<rect x="511.4" y="373.7" class="st0" width="24" height="24"/>
<path d="M534.8,374.2v23h-23v-23H534.8 M535.8,373.2h-25v25h25V373.2z"/>
<rect x="481.4" y="373.7" class="st0" width="24" height="24"/>
<path d="M504.9,374.2v23h-23v-23H504.9 M505.9,373.2h-25v25h25V373.2z"/>
<rect x="451.4" y="373.7" class="st0" width="24" height="24"/>
<path d="M474.9,374.2v23h-23v-23H474.9 M475.9,373.2h-25v25h25V373.2z"/>
<rect x="421.4" y="373.7" class="st0" width="24" height="24"/>
<path d="M444.9,374.2v23h-23v-23H444.9 M445.9,373.2h-25v25h25V373.2z"/>
<rect x="391.4" y="373.7" class="st0" width="24" height="24"/>
<path d="M414.9,374.2v23h-23v-23H414.9 M415.9,373.2h-25v25h25V373.2z"/>
<rect x="361.4" y="373.7" class="st0" width="24" height="24"/>
<path d="M384.9,374.2v23h-23v-23H384.9 M385.9,373.2h-25v25h25V373.2z"/>
<rect x="331.4" y="373.7" class="st0" width="24" height="24"/>
<path d="M354.9,374.2v23h-23v-23H354.9 M355.9,373.2h-25v25h25V373.2z"/>
<rect x="301.4" y="373.7" class="st0" width="24" height="24"/>
<path d="M324.9,374.2v23h-23v-23H324.9 M325.9,373.2h-25v25h25V373.2z"/>
<rect x="271.4" y="373.7" class="st0" width="24" height="24"/>
<path d="M294.9,374.2v23h-23v-23H294.9 M295.9,373.2h-25v25h25V373.2z"/>
<rect x="241.4" y="373.7" class="st0" width="24" height="24"/>
<path d="M264.9,374.2v23h-23v-23H264.9 M265.9,373.2h-25v25h25V373.2z"/>
<rect x="211.4" y="373.7" class="st0" width="24" height="24"/>
<path d="M234.9,374.2v23h-23v-23H234.9 M235.9,373.2h-25v25h25V373.2z"/>
<rect x="181.4" y="373.7" class="st0" width="24" height="24"/>
<path d="M204.9,374.2v23h-23v-23H204.9 M205.9,373.2h-25v25h25V373.2z"/>
<rect x="151.4" y="373.7" class="st0" width="24" height="24"/>
<path d="M174.9,374.2v23h-23v-23H174.9 M175.9,373.2h-25v25h25V373.2z"/>
<rect x="121.3" y="373.7" class="st0" width="24" height="24"/>
<path d="M144.9,374.2v23h-23v-23H144.9 M145.9,373.2h-25v25h25V373.2z"/>
<rect x="91.3" y="373.7" class="st0" width="24" height="24"/>
<path d="M114.8,374.2v23h-23v-23H114.8 M115.8,373.2h-25v25h25V373.2z"/>
<rect x="61.3" y="373.7" class="st0" width="24" height="24"/>
<path d="M84.8,374.2v23h-23v-23H84.8 M85.8,373.2h-25v25h25V373.2z"/>
<rect x="31.4" y="373.7" class="st0" width="24" height="24"/>
<path d="M54.8,374.2v23h-23v-23H54.8 M55.8,373.2h-25v25h25V373.2z"/>
<rect x="1.4" y="373.7" class="st0" width="24" height="24"/>
<path d="M24.9,374.2v23h-23v-23H24.9 M25.9,373.2h-25v25h25V373.2z"/>
<rect x="571.3" y="328.7" class="st0" width="24" height="24"/>
<path d="M594.8,329.2v23h-23v-23H594.8 M595.8,328.2h-25v25h25V328.2z"/>
<rect x="541.3" y="328.7" class="st0" width="24" height="24"/>
<path d="M564.8,329.2v23h-23v-23H564.8 M565.8,328.2h-25v25h25V328.2z"/>
<rect x="511.4" y="328.7" class="st0" width="24" height="24"/>
<path d="M534.8,329.2v23h-23v-23H534.8 M535.8,328.2h-25v25h25V328.2z"/>
<rect x="481.4" y="328.7" class="st0" width="24" height="24"/>
<path d="M504.9,329.2v23h-23v-23H504.9 M505.9,328.2h-25v25h25V328.2z"/>
<rect x="451.4" y="328.7" class="st0" width="24" height="24"/>
<path d="M474.9,329.2v23h-23v-23H474.9 M475.9,328.2h-25v25h25V328.2z"/>
<rect x="421.4" y="328.7" class="st0" width="24" height="24"/>
<path d="M444.9,329.2v23h-23v-23H444.9 M445.9,328.2h-25v25h25V328.2z"/>
<rect x="391.4" y="328.7" class="st0" width="24" height="24"/>
<path d="M414.9,329.2v23h-23v-23H414.9 M415.9,328.2h-25v25h25V328.2z"/>
<rect x="361.4" y="328.7" class="st0" width="24" height="24"/>
<path d="M384.9,329.2v23h-23v-23H384.9 M385.9,328.2h-25v25h25V328.2z"/>
<rect x="331.4" y="328.7" class="st0" width="24" height="24"/>
<path d="M354.9,329.2v23h-23v-23H354.9 M355.9,328.2h-25v25h25V328.2z"/>
<rect x="301.4" y="328.7" class="st0" width="24" height="24"/>
<path d="M324.9,329.2v23h-23v-23H324.9 M325.9,328.2h-25v25h25V328.2z"/>
<rect x="271.4" y="328.7" class="st0" width="24" height="24"/>
<path d="M294.9,329.2v23h-23v-23H294.9 M295.9,328.2h-25v25h25V328.2z"/>
<rect x="241.4" y="328.7" class="st0" width="24" height="24"/>
<path d="M264.9,329.2v23h-23v-23H264.9 M265.9,328.2h-25v25h25V328.2z"/>
<rect x="211.4" y="328.7" class="st0" width="24" height="24"/>
<path d="M234.9,329.2v23h-23v-23H234.9 M235.9,328.2h-25v25h25V328.2z"/>
<rect x="181.4" y="328.7" class="st0" width="24" height="24"/>
<path d="M204.9,329.2v23h-23v-23H204.9 M205.9,328.2h-25v25h25V328.2z"/>
<rect x="151.4" y="328.7" class="st0" width="24" height="24"/>
<path d="M174.9,329.2v23h-23v-23H174.9 M175.9,328.2h-25v25h25V328.2z"/>
<rect x="121.3" y="328.7" class="st0" width="24" height="24"/>
<path d="M144.9,329.2v23h-23v-23H144.9 M145.9,328.2h-25v25h25V328.2z"/>
<rect x="91.3" y="328.7" class="st0" width="24" height="24"/>
<path d="M114.8,329.2v23h-23v-23H114.8 M115.8,328.2h-25v25h25V328.2z"/>
<rect x="61.3" y="328.7" class="st0" width="24" height="24"/>
<path d="M84.8,329.2v23h-23v-23H84.8 M85.8,328.2h-25v25h25V328.2z"/>
<rect x="31.4" y="328.7" class="st0" width="24" height="24"/>
<path d="M54.8,329.2v23h-23v-23H54.8 M55.8,328.2h-25v25h25V328.2z"/>
<rect x="1.4" y="328.7" class="st0" width="24" height="24"/>
<path d="M24.9,329.2v23h-23v-23H24.9 M25.9,328.2h-25v25h25V328.2z"/>
<rect x="571.3" y="283.7" class="st0" width="24" height="24"/>
<path d="M594.8,284.2v23h-23v-23H594.8 M595.8,283.2h-25v25h25V283.2z"/>
<rect x="541.3" y="283.7" class="st0" width="24" height="24"/>
<path d="M564.8,284.2v23h-23v-23H564.8 M565.8,283.2h-25v25h25V283.2z"/>
<rect x="511.4" y="283.7" class="st0" width="24" height="24"/>
<path d="M534.8,284.2v23h-23v-23H534.8 M535.8,283.2h-25v25h25V283.2z"/>
<rect x="481.4" y="283.7" class="st0" width="24" height="24"/>
<path d="M504.9,284.2v23h-23v-23H504.9 M505.9,283.2h-25v25h25V283.2z"/>
<rect x="451.4" y="283.7" class="st0" width="24" height="24"/>
<path d="M474.9,284.2v23h-23v-23H474.9 M475.9,283.2h-25v25h25V283.2z"/>
<rect x="421.4" y="283.7" class="st0" width="24" height="24"/>
<path d="M444.9,284.2v23h-23v-23H444.9 M445.9,283.2h-25v25h25V283.2z"/>
<rect x="391.4" y="283.7" class="st0" width="24" height="24"/>
<path d="M414.9,284.2v23h-23v-23H414.9 M415.9,283.2h-25v25h25V283.2z"/>
<rect x="361.4" y="283.7" class="st0" width="24" height="24"/>
<path d="M384.9,284.2v23h-23v-23H384.9 M385.9,283.2h-25v25h25V283.2z"/>
<rect x="331.4" y="283.7" class="st0" width="24" height="24"/>
<path d="M354.9,284.2v23h-23v-23H354.9 M355.9,283.2h-25v25h25V283.2z"/>
<rect x="301.4" y="283.7" class="st0" width="24" height="24"/>
<path d="M324.9,284.2v23h-23v-23H324.9 M325.9,283.2h-25v25h25V283.2z"/>
<rect x="271.4" y="283.7" class="st0" width="24" height="24"/>
<path d="M294.9,284.2v23h-23v-23H294.9 M295.9,283.2h-25v25h25V283.2z"/>
<rect x="241.4" y="283.7" class="st0" width="24" height="24"/>
<path d="M264.9,284.2v23h-23v-23H264.9 M265.9,283.2h-25v25h25V283.2z"/>
<rect x="211.4" y="283.7" class="st0" width="24" height="24"/>
<path d="M234.9,284.2v23h-23v-23H234.9 M235.9,283.2h-25v25h25V283.2z"/>
<rect x="181.4" y="283.7" class="st0" width="24" height="24"/>
<path d="M204.9,284.2v23h-23v-23H204.9 M205.9,283.2h-25v25h25V283.2z"/>
<rect x="151.4" y="283.7" class="st0" width="24" height="24"/>
<path d="M174.9,284.2v23h-23v-23H174.9 M175.9,283.2h-25v25h25V283.2z"/>
<rect x="121.3" y="283.7" class="st0" width="24" height="24"/>
<path d="M144.9,284.2v23h-23v-23H144.9 M145.9,283.2h-25v25h25V283.2z"/>
<rect x="91.3" y="283.7" class="st0" width="24" height="24"/>
<path d="M114.8,284.2v23h-23v-23H114.8 M115.8,283.2h-25v25h25V283.2z"/>
<rect x="61.3" y="283.7" class="st0" width="24" height="24"/>
<path d="M84.8,284.2v23h-23v-23H84.8 M85.8,283.2h-25v25h25V283.2z"/>
<rect x="31.4" y="283.7" class="st0" width="24" height="24"/>
<path d="M54.8,284.2v23h-23v-23H54.8 M55.8,283.2h-25v25h25V283.2z"/>
<rect x="1.4" y="283.7" class="st0" width="24" height="24"/>
<path d="M24.9,284.2v23h-23v-23H24.9 M25.9,283.2h-25v25h25V283.2z"/>
<rect x="571.3" y="238.7" class="st0" width="24" height="24"/>
<path d="M594.8,239.2v23h-23v-23L594.8,239.2 M595.8,238.2h-25v25h25V238.2z"/>
<rect x="541.3" y="238.7" class="st0" width="24" height="24"/>
<path d="M564.8,239.2v23h-23v-23L564.8,239.2 M565.8,238.2h-25v25h25V238.2z"/>
<rect x="511.4" y="238.7" class="st0" width="24" height="24"/>
<path d="M534.8,239.2v23h-23v-23L534.8,239.2 M535.8,238.2h-25v25h25V238.2z"/>
<rect x="481.4" y="238.7" class="st0" width="24" height="24"/>
<path d="M504.9,239.2v23h-23v-23L504.9,239.2 M505.9,238.2h-25v25h25V238.2z"/>
<rect x="451.4" y="238.7" class="st0" width="24" height="24"/>
<path d="M474.9,239.2v23h-23v-23L474.9,239.2 M475.9,238.2h-25v25h25V238.2z"/>
<rect x="421.4" y="238.7" class="st0" width="24" height="24"/>
<path d="M444.9,239.2v23h-23v-23L444.9,239.2 M445.9,238.2h-25v25h25V238.2z"/>
<rect x="391.4" y="238.7" class="st0" width="24" height="24"/>
<path d="M414.9,239.2v23h-23v-23L414.9,239.2 M415.9,238.2h-25v25h25V238.2z"/>
<rect x="361.4" y="238.7" class="st0" width="24" height="24"/>
<path d="M384.9,239.2v23h-23v-23L384.9,239.2 M385.9,238.2h-25v25h25V238.2z"/>
<rect x="331.4" y="238.7" class="st0" width="24" height="24"/>
<path d="M354.9,239.2v23h-23v-23L354.9,239.2 M355.9,238.2h-25v25h25V238.2z"/>
<rect x="301.4" y="238.7" class="st0" width="24" height="24"/>
<path d="M324.9,239.2v23h-23v-23L324.9,239.2 M325.9,238.2h-25v25h25V238.2z"/>
<rect x="271.4" y="238.7" class="st0" width="24" height="24"/>
<path d="M294.9,239.2v23h-23v-23L294.9,239.2 M295.9,238.2h-25v25h25V238.2z"/>
<rect x="241.4" y="238.7" class="st0" width="24" height="24"/>
<path d="M264.9,239.2v23h-23v-23L264.9,239.2 M265.9,238.2h-25v25h25V238.2z"/>
<rect x="211.4" y="238.7" class="st0" width="24" height="24"/>
<path d="M234.9,239.2v23h-23v-23L234.9,239.2 M235.9,238.2h-25v25h25V238.2z"/>
<rect x="181.4" y="238.7" class="st0" width="24" height="24"/>
<path d="M204.9,239.2v23h-23v-23L204.9,239.2 M205.9,238.2h-25v25h25V238.2z"/>
<rect x="151.4" y="238.7" class="st0" width="24" height="24"/>
<path d="M174.9,239.2v23h-23v-23L174.9,239.2 M175.9,238.2h-25v25h25V238.2z"/>
<rect x="121.3" y="238.7" class="st0" width="24" height="24"/>
<path d="M144.9,239.2v23h-23v-23L144.9,239.2 M145.9,238.2h-25v25h25V238.2z"/>
<rect x="91.3" y="238.7" class="st0" width="24" height="24"/>
<path d="M114.8,239.2v23h-23v-23L114.8,239.2 M115.8,238.2h-25v25h25V238.2z"/>
<rect x="61.3" y="238.7" class="st0" width="24" height="24"/>
<path d="M84.8,239.2v23h-23v-23L84.8,239.2 M85.8,238.2h-25v25h25V238.2z"/>
<rect x="31.4" y="238.7" class="st0" width="24" height="24"/>
<path d="M54.8,239.2v23h-23v-23L54.8,239.2 M55.8,238.2h-25v25h25V238.2z"/>
<rect x="1.4" y="238.7" class="st0" width="24" height="24"/>
<path d="M24.9,239.2v23h-23v-23L24.9,239.2 M25.9,238.2h-25v25h25V238.2z"/>
<rect x="571.3" y="193.7" class="st0" width="24" height="24"/>
<path d="M594.8,194.2v23h-23v-23H594.8 M595.8,193.2h-25v25h25V193.2z"/>
<rect x="541.3" y="193.7" class="st0" width="24" height="24"/>
<path d="M564.8,194.2v23h-23v-23H564.8 M565.8,193.2h-25v25h25V193.2z"/>
<rect x="511.4" y="193.7" class="st0" width="24" height="24"/>
<path d="M534.8,194.2v23h-23v-23H534.8 M535.8,193.2h-25v25h25V193.2z"/>
<rect x="481.4" y="193.7" class="st0" width="24" height="24"/>
<path d="M504.9,194.2v23h-23v-23H504.9 M505.9,193.2h-25v25h25V193.2z"/>
<rect x="451.4" y="193.7" class="st0" width="24" height="24"/>
<path d="M474.9,194.2v23h-23v-23H474.9 M475.9,193.2h-25v25h25V193.2z"/>
<rect x="421.4" y="193.7" class="st0" width="24" height="24"/>
<path d="M444.9,194.2v23h-23v-23H444.9 M445.9,193.2h-25v25h25V193.2z"/>
<rect x="391.4" y="193.7" class="st0" width="24" height="24"/>
<path d="M414.9,194.2v23h-23v-23H414.9 M415.9,193.2h-25v25h25V193.2z"/>
<rect x="361.4" y="193.7" class="st0" width="24" height="24"/>
<path d="M384.9,194.2v23h-23v-23H384.9 M385.9,193.2h-25v25h25V193.2z"/>
<rect x="331.4" y="193.7" class="st0" width="24" height="24"/>
<path d="M354.9,194.2v23h-23v-23H354.9 M355.9,193.2h-25v25h25V193.2z"/>
<rect x="301.4" y="193.7" class="st0" width="24" height="24"/>
<path d="M324.9,194.2v23h-23v-23H324.9 M325.9,193.2h-25v25h25V193.2z"/>
<rect x="271.4" y="193.7" class="st0" width="24" height="24"/>
<path d="M294.9,194.2v23h-23v-23H294.9 M295.9,193.2h-25v25h25V193.2z"/>
<rect x="241.4" y="193.7" class="st0" width="24" height="24"/>
<path d="M264.9,194.2v23h-23v-23H264.9 M265.9,193.2h-25v25h25V193.2z"/>
<rect x="211.4" y="193.7" class="st0" width="24" height="24"/>
<path d="M234.9,194.2v23h-23v-23H234.9 M235.9,193.2h-25v25h25V193.2z"/>
<rect x="181.4" y="193.7" class="st0" width="24" height="24"/>
<path d="M204.9,194.2v23h-23v-23H204.9 M205.9,193.2h-25v25h25V193.2z"/>
<rect x="151.4" y="193.7" class="st1" width="24" height="24"/>
<rect x="571.3" y="148.7" class="st0" width="24" height="24"/>
<path d="M594.8,149.2v23h-23v-23H594.8 M595.8,148.2h-25v25h25V148.2z"/>
<rect x="541.3" y="148.7" class="st0" width="24" height="24"/>
<path d="M564.8,149.2v23h-23v-23H564.8 M565.8,148.2h-25v25h25V148.2z"/>
<rect x="511.4" y="148.7" class="st0" width="24" height="24"/>
<path d="M534.8,149.2v23h-23v-23H534.8 M535.8,148.2h-25v25h25V148.2z"/>
<rect x="481.4" y="148.7" class="st0" width="24" height="24"/>
<path d="M504.9,149.2v23h-23v-23H504.9 M505.9,148.2h-25v25h25V148.2z"/>
<rect x="451.4" y="148.7" class="st0" width="24" height="24"/>
<path d="M474.9,149.2v23h-23v-23H474.9 M475.9,148.2h-25v25h25V148.2z"/>
<rect x="421.4" y="148.7" class="st0" width="24" height="24"/>
<path d="M444.9,149.2v23h-23v-23H444.9 M445.9,148.2h-25v25h25V148.2z"/>
<rect x="391.4" y="148.7" class="st0" width="24" height="24"/>
<path d="M414.9,149.2v23h-23v-23H414.9 M415.9,148.2h-25v25h25V148.2z"/>
<rect x="361.4" y="148.7" class="st0" width="24" height="24"/>
<path d="M384.9,149.2v23h-23v-23H384.9 M385.9,148.2h-25v25h25V148.2z"/>
<rect x="331.4" y="148.7" class="st0" width="24" height="24"/>
<path d="M354.9,149.2v23h-23v-23H354.9 M355.9,148.2h-25v25h25V148.2z"/>
<rect x="301.4" y="148.7" class="st0" width="24" height="24"/>
<path d="M324.9,149.2v23h-23v-23H324.9 M325.9,148.2h-25v25h25V148.2z"/>
<rect x="271.4" y="148.7" class="st0" width="24" height="24"/>
<path d="M294.9,149.2v23h-23v-23H294.9 M295.9,148.2h-25v25h25V148.2z"/>
<rect x="241.4" y="148.7" class="st0" width="24" height="24"/>
<path d="M264.9,149.2v23h-23v-23H264.9 M265.9,148.2h-25v25h25V148.2z"/>
<rect x="211.4" y="148.7" class="st0" width="24" height="24"/>
<path d="M234.9,149.2v23h-23v-23H234.9 M235.9,148.2h-25v25h25V148.2z"/>
<rect x="181.4" y="148.7" class="st0" width="24" height="24"/>
<path d="M204.9,149.2v23h-23v-23H204.9 M205.9,148.2h-25v25h25V148.2z"/>
<rect x="571.3" y="103.7" class="st0" width="24" height="24"/>
<path d="M594.8,104.2v23h-23v-23H594.8 M595.8,103.2h-25v25h25C595.8,128.2,595.8,103.2,595.8,103.2z"/>
<rect x="541.3" y="103.7" class="st0" width="24" height="24"/>
<path d="M564.8,104.2v23h-23v-23H564.8 M565.8,103.2h-25v25h25C565.8,128.2,565.8,103.2,565.8,103.2z"/>
<rect x="511.4" y="103.7" class="st0" width="24" height="24"/>
<path d="M534.8,104.2v23h-23v-23H534.8 M535.8,103.2h-25v25h25C535.8,128.2,535.8,103.2,535.8,103.2z"/>
<rect x="481.4" y="103.7" class="st0" width="24" height="24"/>
<path d="M504.9,104.2v23h-23v-23H504.9 M505.9,103.2h-25v25h25C505.9,128.2,505.9,103.2,505.9,103.2z"/>
<rect x="451.4" y="103.7" class="st0" width="24" height="24"/>
<path d="M474.9,104.2v23h-23v-23H474.9 M475.9,103.2h-25v25h25C475.9,128.2,475.9,103.2,475.9,103.2z"/>
<rect x="421.4" y="103.7" class="st0" width="24" height="24"/>
<path d="M444.9,104.2v23h-23v-23H444.9 M445.9,103.2h-25v25h25C445.9,128.2,445.9,103.2,445.9,103.2z"/>
<rect x="391.4" y="103.7" class="st0" width="24" height="24"/>
<path d="M414.9,104.2v23h-23v-23H414.9 M415.9,103.2h-25v25h25C415.9,128.2,415.9,103.2,415.9,103.2z"/>
<rect x="361.4" y="103.7" class="st0" width="24" height="24"/>
<path d="M384.9,104.2v23h-23v-23H384.9 M385.9,103.2h-25v25h25C385.9,128.2,385.9,103.2,385.9,103.2z"/>
<rect x="331.4" y="103.7" class="st0" width="24" height="24"/>
<path d="M354.9,104.2v23h-23v-23H354.9 M355.9,103.2h-25v25h25C355.9,128.2,355.9,103.2,355.9,103.2z"/>
<rect x="301.4" y="103.7" class="st0" width="24" height="24"/>
<path d="M324.9,104.2v23h-23v-23H324.9 M325.9,103.2h-25v25h25C325.9,128.2,325.9,103.2,325.9,103.2z"/>
<rect x="271.4" y="103.7" class="st0" width="24" height="24"/>
<path d="M294.9,104.2v23h-23v-23H294.9 M295.9,103.2h-25v25h25C295.9,128.2,295.9,103.2,295.9,103.2z"/>
<rect x="241.4" y="103.7" class="st0" width="24" height="24"/>
<path d="M264.9,104.2v23h-23v-23H264.9 M265.9,103.2h-25v25h25C265.9,128.2,265.9,103.2,265.9,103.2z"/>
<rect x="211.4" y="103.7" class="st0" width="24" height="24"/>
<path d="M234.9,104.2v23h-23v-23H234.9 M235.9,103.2h-25v25h25C235.9,128.2,235.9,103.2,235.9,103.2z"/>
<rect x="181.4" y="103.7" class="st0" width="24" height="24"/>
<path d="M204.9,104.2v23h-23v-23H204.9 M205.9,103.2h-25v25h25C205.9,128.2,205.9,103.2,205.9,103.2z"/>
<rect x="151.4" y="103.7" class="st1" width="24" height="24"/>
<rect x="571.3" y="58.7" class="st0" width="24" height="24"/>
<path d="M594.8,59.2v23h-23v-23H594.8 M595.8,58.2h-25v25h25V58.2z"/>
<rect x="541.3" y="58.7" class="st0" width="24" height="24"/>
<path d="M564.8,59.2v23h-23v-23H564.8 M565.8,58.2h-25v25h25V58.2z"/>
<rect x="511.4" y="58.7" class="st0" width="24" height="24"/>
<path d="M534.8,59.2v23h-23v-23H534.8 M535.8,58.2h-25v25h25V58.2z"/>
<rect x="481.4" y="58.7" class="st0" width="24" height="24"/>
<path d="M504.9,59.2v23h-23v-23H504.9 M505.9,58.2h-25v25h25V58.2z"/>
<rect x="451.4" y="58.7" class="st0" width="24" height="24"/>
<path d="M474.9,59.2v23h-23v-23H474.9 M475.9,58.2h-25v25h25V58.2z"/>
<rect x="421.4" y="58.7" class="st0" width="24" height="24"/>
<path d="M444.9,59.2v23h-23v-23H444.9 M445.9,58.2h-25v25h25V58.2z"/>
<rect x="391.4" y="58.7" class="st0" width="24" height="24"/>
<path d="M414.9,59.2v23h-23v-23H414.9 M415.9,58.2h-25v25h25V58.2z"/>
<rect x="361.4" y="58.7" class="st0" width="24" height="24"/>
<path d="M384.9,59.2v23h-23v-23H384.9 M385.9,58.2h-25v25h25V58.2z"/>
<rect x="331.4" y="58.7" class="st0" width="24" height="24"/>
<path d="M354.9,59.2v23h-23v-23H354.9 M355.9,58.2h-25v25h25V58.2z"/>
<rect x="301.4" y="58.7" class="st0" width="24" height="24"/>
<path d="M324.9,59.2v23h-23v-23H324.9 M325.9,58.2h-25v25h25V58.2z"/>
<rect x="271.4" y="58.7" class="st0" width="24" height="24"/>
<path d="M294.9,59.2v23h-23v-23H294.9 M295.9,58.2h-25v25h25V58.2z"/>
<rect x="241.4" y="58.7" class="st0" width="24" height="24"/>
<path d="M264.9,59.2v23h-23v-23H264.9 M265.9,58.2h-25v25h25V58.2z"/>
<rect x="211.4" y="58.7" class="st0" width="24" height="24"/>
<path d="M234.9,59.2v23h-23v-23H234.9 M235.9,58.2h-25v25h25V58.2z"/>
<rect x="181.4" y="58.7" class="st0" width="24" height="24"/>
<path d="M204.9,59.2v23h-23v-23H204.9 M205.9,58.2h-25v25h25V58.2z"/>
<rect x="151.4" y="58.7" class="st1" width="24" height="24"/>
<rect x="571.3" y="13.7" class="st0" width="24" height="24"/>
<path d="M594.8,14.2v23h-23v-23L594.8,14.2 M595.8,13.2h-25v25h25V13.2z"/>
<rect x="541.3" y="13.7" class="st0" width="24" height="24"/>
<path d="M564.8,14.2v23h-23v-23L564.8,14.2 M565.8,13.2h-25v25h25V13.2z"/>
<rect x="511.4" y="13.7" class="st0" width="24" height="24"/>
<path d="M534.8,14.2v23h-23v-23L534.8,14.2 M535.8,13.2h-25v25h25V13.2z"/>
<rect x="481.4" y="13.7" class="st0" width="24" height="24"/>
<path d="M504.9,14.2v23h-23v-23L504.9,14.2 M505.9,13.2h-25v25h25V13.2z"/>
<rect x="451.4" y="13.7" class="st0" width="24" height="24"/>
<path d="M474.9,14.2v23h-23v-23L474.9,14.2 M475.9,13.2h-25v25h25V13.2z"/>
<rect x="421.4" y="13.7" class="st0" width="24" height="24"/>
<path d="M444.9,14.2v23h-23v-23L444.9,14.2 M445.9,13.2h-25v25h25V13.2z"/>
<rect x="391.4" y="13.7" class="st0" width="24" height="24"/>
<path d="M414.9,14.2v23h-23v-23L414.9,14.2 M415.9,13.2h-25v25h25V13.2z"/>
<rect x="361.4" y="13.7" class="st0" width="24" height="24"/>
<path d="M384.9,14.2v23h-23v-23L384.9,14.2 M385.9,13.2h-25v25h25V13.2z"/>
<rect x="331.4" y="13.7" class="st0" width="24" height="24"/>
<path d="M354.9,14.2v23h-23v-23L354.9,14.2 M355.9,13.2h-25v25h25V13.2z"/>
<rect x="301.4" y="13.7" class="st0" width="24" height="24"/>
<path d="M324.9,14.2v23h-23v-23L324.9,14.2 M325.9,13.2h-25v25h25V13.2z"/>
<rect x="271.4" y="13.7" class="st0" width="24" height="24"/>
<path d="M294.9,14.2v23h-23v-23L294.9,14.2 M295.9,13.2h-25v25h25V13.2z"/>
<rect x="241.4" y="13.7" class="st0" width="24" height="24"/>
<path d="M264.9,14.2v23h-23v-23L264.9,14.2 M265.9,13.2h-25v25h25V13.2z"/>
<rect x="211.4" y="13.7" class="st0" width="24" height="24"/>
<path d="M234.9,14.2v23h-23v-23L234.9,14.2 M235.9,13.2h-25v25h25V13.2z"/>
<rect x="181.4" y="13.7" class="st0" width="24" height="24"/>
<path d="M204.9,14.2v23h-23v-23L204.9,14.2 M205.9,13.2h-25v25h25V13.2z"/>
<rect x="151.4" y="13.7" class="st1" width="24" height="24"/>
<polyline points="692.3,418.7 705.3,405.7 717.8,418.2 718.3,418.7 "/>
<polyline class="st2" points="692.3,418.7 705.3,405.7 717.8,418.2 718.3,418.7 "/>
<polyline points="662.3,418.7 675.3,405.7 687.8,418.2 688.3,418.7 "/>
<polyline class="st2" points="662.3,418.7 675.3,405.7 687.8,418.2 688.3,418.7 "/>
<polyline points="632.3,418.7 645.3,405.7 657.8,418.2 658.3,418.7 "/>
<polyline class="st2" points="632.3,418.7 645.3,405.7 657.8,418.2 658.3,418.7 "/>
<polyline points="602.3,418.7 615.3,405.7 627.8,418.2 628.3,418.7 "/>
<polyline class="st2" points="602.3,418.7 615.3,405.7 627.8,418.2 628.3,418.7 "/>
<polyline points="871.3,193.7 884.3,180.7 896.8,193.2 897.3,193.7 "/>
<polyline class="st2" points="871.3,193.7 884.3,180.7 896.8,193.2 897.3,193.7 "/>
<polyline points="841.3,193.7 854.3,180.7 866.8,193.2 867.3,193.7 "/>
<polyline class="st2" points="841.3,193.7 854.3,180.7 866.8,193.2 867.3,193.7 "/>
<polyline points="811.3,193.7 824.3,180.7 836.8,193.2 837.3,193.7 "/>
<polyline class="st2" points="811.3,193.7 824.3,180.7 836.8,193.2 837.3,193.7 "/>
<polyline points="781.3,193.7 794.3,180.7 806.8,193.2 807.3,193.7 "/>
<polyline class="st2" points="781.3,193.7 794.3,180.7 806.8,193.2 807.3,193.7 "/>
<polyline points="751.3,193.7 764.3,180.7 776.8,193.2 777.3,193.7 "/>
<polyline class="st2" points="751.3,193.7 764.3,180.7 776.8,193.2 777.3,193.7 "/>
<polyline points="721.3,193.7 734.3,180.7 746.8,193.2 747.3,193.7 "/>
<polyline class="st2" points="721.3,193.7 734.3,180.7 746.8,193.2 747.3,193.7 "/>
<polyline points="691.3,193.7 704.3,180.7 716.8,193.2 717.3,193.7 "/>
<polyline class="st2" points="691.3,193.7 704.3,180.7 716.8,193.2 717.3,193.7 "/>
<polyline points="661.3,193.7 674.3,180.7 686.8,193.2 687.3,193.7 "/>
<polyline class="st2" points="661.3,193.7 674.3,180.7 686.8,193.2 687.3,193.7 "/>
<polyline points="631.3,193.7 644.3,180.7 656.8,193.2 657.3,193.7 "/>
<polyline class="st2" points="631.3,193.7 644.3,180.7 656.8,193.2 657.3,193.7 "/>
<polyline points="601.3,193.7 614.3,180.7 626.8,193.2 627.3,193.7 "/>
<polyline class="st2" points="601.3,193.7 614.3,180.7 626.8,193.2 627.3,193.7 "/>
<polyline points="872.3,373.7 885.3,360.7 897.8,373.2 898.3,373.7 "/>
<polyline class="st2" points="872.3,373.7 885.3,360.7 897.8,373.2 898.3,373.7 "/>
<polyline points="842.3,373.7 855.3,360.7 867.8,373.2 868.3,373.7 "/>
<polyline class="st2" points="842.3,373.7 855.3,360.7 867.8,373.2 868.3,373.7 "/>
<polyline points="812.3,373.7 825.3,360.7 837.8,373.2 838.3,373.7 "/>
<polyline class="st2" points="812.3,373.7 825.3,360.7 837.8,373.2 838.3,373.7 "/>
<polyline points="782.3,373.7 795.3,360.7 807.8,373.2 808.3,373.7 "/>
<polyline class="st2" points="782.3,373.7 795.3,360.7 807.8,373.2 808.3,373.7 "/>
<polyline points="752.3,373.7 765.3,360.7 777.8,373.2 778.3,373.7 "/>
<polyline class="st2" points="752.3,373.7 765.3,360.7 777.8,373.2 778.3,373.7 "/>
<polyline points="722.3,373.7 735.3,360.7 747.8,373.2 748.3,373.7 "/>
<polyline class="st2" points="722.3,373.7 735.3,360.7 747.8,373.2 748.3,373.7 "/>
<polyline points="692.3,373.7 705.3,360.7 717.8,373.2 718.3,373.7 "/>
<polyline class="st2" points="692.3,373.7 705.3,360.7 717.8,373.2 718.3,373.7 "/>
<polyline points="662.3,373.7 675.3,360.7 687.8,373.2 688.3,373.7 "/>
<polyline class="st2" points="662.3,373.7 675.3,360.7 687.8,373.2 688.3,373.7 "/>
<polyline points="632.3,373.7 645.3,360.7 657.8,373.2 658.3,373.7 "/>
<polyline class="st2" points="632.3,373.7 645.3,360.7 657.8,373.2 658.3,373.7 "/>
<polyline points="602.3,373.7 615.3,360.7 627.8,373.2 628.3,373.7 "/>
<polyline class="st2" points="602.3,373.7 615.3,360.7 627.8,373.2 628.3,373.7 "/>
<polyline points="871.3,148.7 884.3,135.7 896.8,148.2 897.3,148.7 "/>
<polyline class="st2" points="871.3,148.7 884.3,135.7 896.8,148.2 897.3,148.7 "/>
<polyline points="841.3,148.7 854.3,135.7 866.8,148.2 867.3,148.7 "/>
<polyline class="st2" points="841.3,148.7 854.3,135.7 866.8,148.2 867.3,148.7 "/>
<polyline points="811.3,148.7 824.3,135.7 836.8,148.2 837.3,148.7 "/>
<polyline class="st2" points="811.3,148.7 824.3,135.7 836.8,148.2 837.3,148.7 "/>
<polyline points="781.3,148.7 794.3,135.7 806.8,148.2 807.3,148.7 "/>
<polyline class="st2" points="781.3,148.7 794.3,135.7 806.8,148.2 807.3,148.7 "/>
<polyline points="751.3,148.7 764.3,135.7 776.8,148.2 777.3,148.7 "/>
<polyline class="st2" points="751.3,148.7 764.3,135.7 776.8,148.2 777.3,148.7 "/>
<polyline points="721.3,148.7 734.3,135.7 746.8,148.2 747.3,148.7 "/>
<polyline class="st2" points="721.3,148.7 734.3,135.7 746.8,148.2 747.3,148.7 "/>
<polyline points="691.3,148.7 704.3,135.7 716.8,148.2 717.3,148.7 "/>
<polyline class="st2" points="691.3,148.7 704.3,135.7 716.8,148.2 717.3,148.7 "/>
<polyline points="661.3,148.7 674.3,135.7 686.8,148.2 687.3,148.7 "/>
<polyline class="st2" points="661.3,148.7 674.3,135.7 686.8,148.2 687.3,148.7 "/>
<polyline points="631.3,148.7 644.3,135.7 656.8,148.2 657.3,148.7 "/>
<polyline class="st2" points="631.3,148.7 644.3,135.7 656.8,148.2 657.3,148.7 "/>
<polyline points="601.3,148.7 614.3,135.7 626.8,148.2 627.3,148.7 "/>
<polyline class="st2" points="601.3,148.7 614.3,135.7 626.8,148.2 627.3,148.7 "/>
<polyline points="872.3,328.7 885.3,315.7 897.8,328.2 898.3,328.7 "/>
<polyline class="st2" points="872.3,328.7 885.3,315.7 897.8,328.2 898.3,328.7 "/>
<polyline points="842.3,328.7 855.3,315.7 867.8,328.2 868.3,328.7 "/>
<polyline class="st2" points="842.3,328.7 855.3,315.7 867.8,328.2 868.3,328.7 "/>
<polyline points="812.3,328.7 825.3,315.7 837.8,328.2 838.3,328.7 "/>
<polyline class="st2" points="812.3,328.7 825.3,315.7 837.8,328.2 838.3,328.7 "/>
<polyline points="782.3,328.7 795.3,315.7 807.8,328.2 808.3,328.7 "/>
<polyline class="st2" points="782.3,328.7 795.3,315.7 807.8,328.2 808.3,328.7 "/>
<polyline points="752.3,328.7 765.3,315.7 777.8,328.2 778.3,328.7 "/>
<polyline class="st2" points="752.3,328.7 765.3,315.7 777.8,328.2 778.3,328.7 "/>
<polyline points="722.3,328.7 735.3,315.7 747.8,328.2 748.3,328.7 "/>
<polyline class="st2" points="722.3,328.7 735.3,315.7 747.8,328.2 748.3,328.7 "/>
<polyline points="692.3,328.7 705.3,315.7 717.8,328.2 718.3,328.7 "/>
<polyline class="st2" points="692.3,328.7 705.3,315.7 717.8,328.2 718.3,328.7 "/>
<polyline points="662.3,328.7 675.3,315.7 687.8,328.2 688.3,328.7 "/>
<polyline class="st2" points="662.3,328.7 675.3,315.7 687.8,328.2 688.3,328.7 "/>
<polyline points="632.3,328.7 645.3,315.7 657.8,328.2 658.3,328.7 "/>
<polyline class="st2" points="632.3,328.7 645.3,315.7 657.8,328.2 658.3,328.7 "/>
<polyline points="602.3,328.7 615.3,315.7 627.8,328.2 628.3,328.7 "/>
<polyline class="st2" points="602.3,328.7 615.3,315.7 627.8,328.2 628.3,328.7 "/>
<polyline points="871.3,103.7 884.3,90.7 896.8,103.2 897.3,103.7 "/>
<polyline class="st2" points="871.3,103.7 884.3,90.7 896.8,103.2 897.3,103.7 "/>
<polyline points="841.3,103.7 854.3,90.7 866.8,103.2 867.3,103.7 "/>
<polyline class="st2" points="841.3,103.7 854.3,90.7 866.8,103.2 867.3,103.7 "/>
<polyline points="811.3,103.7 824.3,90.7 836.8,103.2 837.3,103.7 "/>
<polyline class="st2" points="811.3,103.7 824.3,90.7 836.8,103.2 837.3,103.7 "/>
<polyline points="781.3,103.7 794.3,90.7 806.8,103.2 807.3,103.7 "/>
<polyline class="st2" points="781.3,103.7 794.3,90.7 806.8,103.2 807.3,103.7 "/>
<polyline points="751.3,103.7 764.3,90.7 776.8,103.2 777.3,103.7 "/>
<polyline class="st2" points="751.3,103.7 764.3,90.7 776.8,103.2 777.3,103.7 "/>
<polyline points="721.3,103.7 734.3,90.7 746.8,103.2 747.3,103.7 "/>
<polyline class="st2" points="721.3,103.7 734.3,90.7 746.8,103.2 747.3,103.7 "/>
<polyline points="691.3,103.7 704.3,90.7 716.8,103.2 717.3,103.7 "/>
<polyline class="st2" points="691.3,103.7 704.3,90.7 716.8,103.2 717.3,103.7 "/>
<polyline points="661.3,103.7 674.3,90.7 686.8,103.2 687.3,103.7 "/>
<polyline class="st2" points="661.3,103.7 674.3,90.7 686.8,103.2 687.3,103.7 "/>
<polyline points="631.3,103.7 644.3,90.7 656.8,103.2 657.3,103.7 "/>
<polyline class="st2" points="631.3,103.7 644.3,90.7 656.8,103.2 657.3,103.7 "/>
<polyline points="601.3,103.7 614.3,90.7 626.8,103.2 627.3,103.7 "/>
<polyline class="st2" points="601.3,103.7 614.3,90.7 626.8,103.2 627.3,103.7 "/>
<polyline points="872.3,283.7 885.3,270.7 897.8,283.2 898.3,283.7 "/>
<polyline class="st2" points="872.3,283.7 885.3,270.7 897.8,283.2 898.3,283.7 "/>
<polyline points="842.3,283.7 855.3,270.7 867.8,283.2 868.3,283.7 "/>
<polyline class="st2" points="842.3,283.7 855.3,270.7 867.8,283.2 868.3,283.7 "/>
<polyline points="812.3,283.7 825.3,270.7 837.8,283.2 838.3,283.7 "/>
<polyline class="st2" points="812.3,283.7 825.3,270.7 837.8,283.2 838.3,283.7 "/>
<polyline points="782.3,283.7 795.3,270.7 807.8,283.2 808.3,283.7 "/>
<polyline class="st2" points="782.3,283.7 795.3,270.7 807.8,283.2 808.3,283.7 "/>
<polyline points="752.3,283.7 765.3,270.7 777.8,283.2 778.3,283.7 "/>
<polyline class="st2" points="752.3,283.7 765.3,270.7 777.8,283.2 778.3,283.7 "/>
<polyline points="722.3,283.7 735.3,270.7 747.8,283.2 748.3,283.7 "/>
<polyline class="st2" points="722.3,283.7 735.3,270.7 747.8,283.2 748.3,283.7 "/>
<polyline points="692.3,283.7 705.3,270.7 717.8,283.2 718.3,283.7 "/>
<polyline class="st2" points="692.3,283.7 705.3,270.7 717.8,283.2 718.3,283.7 "/>
<polyline points="662.3,283.7 675.3,270.7 687.8,283.2 688.3,283.7 "/>
<polyline class="st2" points="662.3,283.7 675.3,270.7 687.8,283.2 688.3,283.7 "/>
<polyline points="632.3,283.7 645.3,270.7 657.8,283.2 658.3,283.7 "/>
<polyline class="st2" points="632.3,283.7 645.3,270.7 657.8,283.2 658.3,283.7 "/>
<polyline points="602.3,283.7 615.3,270.7 627.8,283.2 628.3,283.7 "/>
<polyline class="st2" points="602.3,283.7 615.3,270.7 627.8,283.2 628.3,283.7 "/>
<polyline points="871.3,58.7 884.3,45.7 896.8,58.2 897.3,58.7 "/>
<polyline class="st2" points="871.3,58.7 884.3,45.7 896.8,58.2 897.3,58.7 "/>
<polyline points="841.3,58.7 854.3,45.7 866.8,58.2 867.3,58.7 "/>
<polyline class="st2" points="841.3,58.7 854.3,45.7 866.8,58.2 867.3,58.7 "/>
<polyline points="811.3,58.7 824.3,45.7 836.8,58.2 837.3,58.7 "/>
<polyline class="st2" points="811.3,58.7 824.3,45.7 836.8,58.2 837.3,58.7 "/>
<polyline points="781.3,58.7 794.3,45.7 806.8,58.2 807.3,58.7 "/>
<polyline class="st2" points="781.3,58.7 794.3,45.7 806.8,58.2 807.3,58.7 "/>
<polyline points="751.3,58.7 764.3,45.7 776.8,58.2 777.3,58.7 "/>
<polyline class="st2" points="751.3,58.7 764.3,45.7 776.8,58.2 777.3,58.7 "/>
<polyline points="721.3,58.7 734.3,45.7 746.8,58.2 747.3,58.7 "/>
<polyline class="st2" points="721.3,58.7 734.3,45.7 746.8,58.2 747.3,58.7 "/>
<polyline points="691.3,58.7 704.3,45.7 716.8,58.2 717.3,58.7 "/>
<polyline class="st2" points="691.3,58.7 704.3,45.7 716.8,58.2 717.3,58.7 "/>
<polyline points="661.3,58.7 674.3,45.7 686.8,58.2 687.3,58.7 "/>
<polyline class="st2" points="661.3,58.7 674.3,45.7 686.8,58.2 687.3,58.7 "/>
<polyline points="631.3,58.7 644.3,45.7 656.8,58.2 657.3,58.7 "/>
<polyline class="st2" points="631.3,58.7 644.3,45.7 656.8,58.2 657.3,58.7 "/>
<polyline points="601.3,58.7 614.3,45.7 626.8,58.2 627.3,58.7 "/>
<polyline class="st2" points="601.3,58.7 614.3,45.7 626.8,58.2 627.3,58.7 "/>
<polyline points="872.3,238.7 885.3,225.7 897.8,238.2 898.3,238.7 "/>
<polyline class="st2" points="872.3,238.7 885.3,225.7 897.8,238.2 898.3,238.7 "/>
<polyline points="842.3,238.7 855.3,225.7 867.8,238.2 868.3,238.7 "/>
<polyline class="st2" points="842.3,238.7 855.3,225.7 867.8,238.2 868.3,238.7 "/>
<polyline points="812.3,238.7 825.3,225.7 837.8,238.2 838.3,238.7 "/>
<polyline class="st2" points="812.3,238.7 825.3,225.7 837.8,238.2 838.3,238.7 "/>
<polyline points="782.3,238.7 795.3,225.7 807.8,238.2 808.3,238.7 "/>
<polyline class="st2" points="782.3,238.7 795.3,225.7 807.8,238.2 808.3,238.7 "/>
<polyline points="752.3,238.7 765.3,225.7 777.8,238.2 778.3,238.7 "/>
<polyline class="st2" points="752.3,238.7 765.3,225.7 777.8,238.2 778.3,238.7 "/>
<polyline points="722.3,238.7 735.3,225.7 747.8,238.2 748.3,238.7 "/>
<polyline class="st2" points="722.3,238.7 735.3,225.7 747.8,238.2 748.3,238.7 "/>
<polyline points="692.3,238.7 705.3,225.7 717.8,238.2 718.3,238.7 "/>
<polyline class="st2" points="692.3,238.7 705.3,225.7 717.8,238.2 718.3,238.7 "/>
<polyline points="662.3,238.7 675.3,225.7 687.8,238.2 688.3,238.7 "/>
<polyline class="st2" points="662.3,238.7 675.3,225.7 687.8,238.2 688.3,238.7 "/>
<polyline points="632.3,238.7 645.3,225.7 657.8,238.2 658.3,238.7 "/>
<polyline class="st2" points="632.3,238.7 645.3,225.7 657.8,238.2 658.3,238.7 "/>
<polyline points="602.3,238.7 615.3,225.7 627.8,238.2 628.3,238.7 "/>
<polyline class="st2" points="602.3,238.7 615.3,225.7 627.8,238.2 628.3,238.7 "/>
<polyline points="871.3,13.7 884.3,0.7 896.8,13.2 897.3,13.7 "/>
<polyline class="st2" points="871.3,13.7 884.3,0.7 896.8,13.2 897.3,13.7 "/>
<polyline points="841.3,13.7 854.3,0.7 866.8,13.2 867.3,13.7 "/>
<polyline class="st2" points="841.3,13.7 854.3,0.7 866.8,13.2 867.3,13.7 "/>
<polyline points="811.3,13.7 824.3,0.7 836.8,13.2 837.3,13.7 "/>
<polyline class="st2" points="811.3,13.7 824.3,0.7 836.8,13.2 837.3,13.7 "/>
<polyline points="781.3,13.7 794.3,0.7 806.8,13.2 807.3,13.7 "/>
<polyline class="st2" points="781.3,13.7 794.3,0.7 806.8,13.2 807.3,13.7 "/>
<polyline points="751.3,13.7 764.3,0.7 776.8,13.2 777.3,13.7 "/>
<polyline class="st2" points="751.3,13.7 764.3,0.7 776.8,13.2 777.3,13.7 "/>
<polyline points="721.3,13.7 734.3,0.7 746.8,13.2 747.3,13.7 "/>
<polyline class="st2" points="721.3,13.7 734.3,0.7 746.8,13.2 747.3,13.7 "/>
<polyline points="691.3,13.7 704.3,0.7 716.8,13.2 717.3,13.7 "/>
<polyline class="st2" points="691.3,13.7 704.3,0.7 716.8,13.2 717.3,13.7 "/>
<polyline points="661.3,13.7 674.3,0.7 686.8,13.2 687.3,13.7 "/>
<polyline class="st2" points="661.3,13.7 674.3,0.7 686.8,13.2 687.3,13.7 "/>
<polyline points="631.3,13.7 644.3,0.7 656.8,13.2 657.3,13.7 "/>
<polyline class="st2" points="631.3,13.7 644.3,0.7 656.8,13.2 657.3,13.7 "/>
<polyline points="601.3,13.7 614.3,0.7 626.8,13.2 627.3,13.7 "/>
<polyline class="st2" points="601.3,13.7 614.3,0.7 626.8,13.2 627.3,13.7 "/>
<polyline points="570.3,418.7 583.3,405.7 595.8,418.2 596.3,418.7 "/>
<polyline class="st2" points="570.3,418.7 583.3,405.7 595.8,418.2 596.3,418.7 "/>
<polyline points="540.3,418.7 553.3,405.7 565.8,418.2 566.3,418.7 "/>
<polyline class="st2" points="540.3,418.7 553.3,405.7 565.8,418.2 566.3,418.7 "/>
<polyline points="510.4,418.7 523.3,405.7 535.8,418.2 536.3,418.7 "/>
<polyline class="st2" points="510.4,418.7 523.3,405.7 535.8,418.2 536.3,418.7 "/>
<polyline points="480.4,418.7 493.4,405.7 505.9,418.2 506.4,418.7 "/>
<polyline class="st2" points="480.4,418.7 493.4,405.7 505.9,418.2 506.4,418.7 "/>
<polyline points="450.4,418.7 463.4,405.7 475.9,418.2 476.4,418.7 "/>
<polyline class="st2" points="450.4,418.7 463.4,405.7 475.9,418.2 476.4,418.7 "/>
<polyline points="420.4,418.7 433.4,405.7 445.9,418.2 446.4,418.7 "/>
<polyline class="st2" points="420.4,418.7 433.4,405.7 445.9,418.2 446.4,418.7 "/>
<polyline points="390.4,418.7 403.4,405.7 415.9,418.2 416.4,418.7 "/>
<polyline class="st2" points="390.4,418.7 403.4,405.7 415.9,418.2 416.4,418.7 "/>
<polyline points="360.4,418.7 373.4,405.7 385.9,418.2 386.4,418.7 "/>
<polyline class="st2" points="360.4,418.7 373.4,405.7 385.9,418.2 386.4,418.7 "/>
<polyline points="330.4,418.7 343.4,405.7 355.9,418.2 356.4,418.7 "/>
<polyline class="st2" points="330.4,418.7 343.4,405.7 355.9,418.2 356.4,418.7 "/>
<polyline points="300.4,418.7 313.4,405.7 325.9,418.2 326.4,418.7 "/>
<polyline class="st2" points="300.4,418.7 313.4,405.7 325.9,418.2 326.4,418.7 "/>
<polyline points="270.4,418.7 283.4,405.7 295.9,418.2 296.4,418.7 "/>
<polyline class="st2" points="270.4,418.7 283.4,405.7 295.9,418.2 296.4,418.7 "/>
<polyline points="240.4,418.7 253.4,405.7 265.9,418.2 266.4,418.7 "/>
<polyline class="st2" points="240.4,418.7 253.4,405.7 265.9,418.2 266.4,418.7 "/>
<polyline points="210.4,418.7 223.4,405.7 235.9,418.2 236.4,418.7 "/>
<polyline class="st2" points="210.4,418.7 223.4,405.7 235.9,418.2 236.4,418.7 "/>
<polyline points="180.4,418.7 193.4,405.7 205.9,418.2 206.4,418.7 "/>
<polyline class="st2" points="180.4,418.7 193.4,405.7 205.9,418.2 206.4,418.7 "/>
<polyline points="150.4,418.7 163.4,405.7 175.9,418.2 176.4,418.7 "/>
<polyline class="st2" points="150.4,418.7 163.4,405.7 175.9,418.2 176.4,418.7 "/>
<polyline points="120.3,418.7 133.4,405.7 145.9,418.2 146.4,418.7 "/>
<polyline class="st2" points="120.3,418.7 133.4,405.7 145.9,418.2 146.4,418.7 "/>
<polyline points="90.3,418.7 103.3,405.7 115.8,418.2 116.3,418.7 "/>
<polyline class="st2" points="90.3,418.7 103.3,405.7 115.8,418.2 116.3,418.7 "/>
<polyline points="60.3,418.7 73.3,405.7 85.8,418.2 86.3,418.7 "/>
<polyline class="st2" points="60.3,418.7 73.3,405.7 85.8,418.2 86.3,418.7 "/>
<polyline points="30.4,418.7 43.3,405.7 55.8,418.2 56.3,418.7 "/>
<polyline class="st2" points="30.4,418.7 43.3,405.7 55.8,418.2 56.3,418.7 "/>
<polyline points="0.3,418.7 13.4,405.7 25.9,418.2 26.4,418.7 "/>
<polyline class="st2" points="0.3,418.7 13.4,405.7 25.9,418.2 26.4,418.7 "/>
<polyline points="570.3,373.7 583.3,360.7 595.8,373.2 596.3,373.7 "/>
<polyline class="st2" points="570.3,373.7 583.3,360.7 595.8,373.2 596.3,373.7 "/>
<polyline points="540.3,373.7 553.3,360.7 565.8,373.2 566.3,373.7 "/>
<polyline class="st2" points="540.3,373.7 553.3,360.7 565.8,373.2 566.3,373.7 "/>
<polyline points="510.4,373.7 523.3,360.7 535.8,373.2 536.3,373.7 "/>
<polyline class="st2" points="510.4,373.7 523.3,360.7 535.8,373.2 536.3,373.7 "/>
<polyline points="480.4,373.7 493.4,360.7 505.9,373.2 506.4,373.7 "/>
<polyline class="st2" points="480.4,373.7 493.4,360.7 505.9,373.2 506.4,373.7 "/>
<polyline points="450.4,373.7 463.4,360.7 475.9,373.2 476.4,373.7 "/>
<polyline class="st2" points="450.4,373.7 463.4,360.7 475.9,373.2 476.4,373.7 "/>
<polyline points="420.4,373.7 433.4,360.7 445.9,373.2 446.4,373.7 "/>
<polyline class="st2" points="420.4,373.7 433.4,360.7 445.9,373.2 446.4,373.7 "/>
<polyline points="390.4,373.7 403.4,360.7 415.9,373.2 416.4,373.7 "/>
<polyline class="st2" points="390.4,373.7 403.4,360.7 415.9,373.2 416.4,373.7 "/>
<polyline points="360.4,373.7 373.4,360.7 385.9,373.2 386.4,373.7 "/>
<polyline class="st2" points="360.4,373.7 373.4,360.7 385.9,373.2 386.4,373.7 "/>
<polyline points="330.4,373.7 343.4,360.7 355.9,373.2 356.4,373.7 "/>
<polyline class="st2" points="330.4,373.7 343.4,360.7 355.9,373.2 356.4,373.7 "/>
<polyline points="300.4,373.7 313.4,360.7 325.9,373.2 326.4,373.7 "/>
<polyline class="st2" points="300.4,373.7 313.4,360.7 325.9,373.2 326.4,373.7 "/>
<polyline points="270.4,373.7 283.4,360.7 295.9,373.2 296.4,373.7 "/>
<polyline class="st2" points="270.4,373.7 283.4,360.7 295.9,373.2 296.4,373.7 "/>
<polyline points="240.4,373.7 253.4,360.7 265.9,373.2 266.4,373.7 "/>
<polyline class="st2" points="240.4,373.7 253.4,360.7 265.9,373.2 266.4,373.7 "/>
<polyline points="210.4,373.7 223.4,360.7 235.9,373.2 236.4,373.7 "/>
<polyline class="st2" points="210.4,373.7 223.4,360.7 235.9,373.2 236.4,373.7 "/>
<polyline points="180.4,373.7 193.4,360.7 205.9,373.2 206.4,373.7 "/>
<polyline class="st2" points="180.4,373.7 193.4,360.7 205.9,373.2 206.4,373.7 "/>
<polyline points="150.4,373.7 163.4,360.7 175.9,373.2 176.4,373.7 "/>
<polyline class="st2" points="150.4,373.7 163.4,360.7 175.9,373.2 176.4,373.7 "/>
<polyline points="120.3,373.7 133.4,360.7 145.9,373.2 146.4,373.7 "/>
<polyline class="st2" points="120.3,373.7 133.4,360.7 145.9,373.2 146.4,373.7 "/>
<polyline points="90.3,373.7 103.3,360.7 115.8,373.2 116.3,373.7 "/>
<polyline class="st2" points="90.3,373.7 103.3,360.7 115.8,373.2 116.3,373.7 "/>
<polyline points="60.3,373.7 73.3,360.7 85.8,373.2 86.3,373.7 "/>
<polyline class="st2" points="60.3,373.7 73.3,360.7 85.8,373.2 86.3,373.7 "/>
<polyline points="30.4,373.7 43.3,360.7 55.8,373.2 56.3,373.7 "/>
<polyline class="st2" points="30.4,373.7 43.3,360.7 55.8,373.2 56.3,373.7 "/>
<polyline points="0.3,373.7 13.4,360.7 25.9,373.2 26.4,373.7 "/>
<polyline class="st2" points="0.3,373.7 13.4,360.7 25.9,373.2 26.4,373.7 "/>
<polyline points="570.3,328.7 583.3,315.7 595.8,328.2 596.3,328.7 "/>
<polyline class="st2" points="570.3,328.7 583.3,315.7 595.8,328.2 596.3,328.7 "/>
<polyline points="540.3,328.7 553.3,315.7 565.8,328.2 566.3,328.7 "/>
<polyline class="st2" points="540.3,328.7 553.3,315.7 565.8,328.2 566.3,328.7 "/>
<polyline points="510.4,328.7 523.3,315.7 535.8,328.2 536.3,328.7 "/>
<polyline class="st2" points="510.4,328.7 523.3,315.7 535.8,328.2 536.3,328.7 "/>
<polyline points="480.4,328.7 493.4,315.7 505.9,328.2 506.4,328.7 "/>
<polyline class="st2" points="480.4,328.7 493.4,315.7 505.9,328.2 506.4,328.7 "/>
<polyline points="450.4,328.7 463.4,315.7 475.9,328.2 476.4,328.7 "/>
<polyline class="st2" points="450.4,328.7 463.4,315.7 475.9,328.2 476.4,328.7 "/>
<polyline points="420.4,328.7 433.4,315.7 445.9,328.2 446.4,328.7 "/>
<polyline class="st2" points="420.4,328.7 433.4,315.7 445.9,328.2 446.4,328.7 "/>
<polyline points="390.4,328.7 403.4,315.7 415.9,328.2 416.4,328.7 "/>
<polyline class="st2" points="390.4,328.7 403.4,315.7 415.9,328.2 416.4,328.7 "/>
<polyline points="360.4,328.7 373.4,315.7 385.9,328.2 386.4,328.7 "/>
<polyline class="st2" points="360.4,328.7 373.4,315.7 385.9,328.2 386.4,328.7 "/>
<polyline points="330.4,328.7 343.4,315.7 355.9,328.2 356.4,328.7 "/>
<polyline class="st2" points="330.4,328.7 343.4,315.7 355.9,328.2 356.4,328.7 "/>
<polyline points="300.4,328.7 313.4,315.7 325.9,328.2 326.4,328.7 "/>
<polyline class="st2" points="300.4,328.7 313.4,315.7 325.9,328.2 326.4,328.7 "/>
<polyline points="270.4,328.7 283.4,315.7 295.9,328.2 296.4,328.7 "/>
<polyline class="st2" points="270.4,328.7 283.4,315.7 295.9,328.2 296.4,328.7 "/>
<polyline points="240.4,328.7 253.4,315.7 265.9,328.2 266.4,328.7 "/>
<polyline class="st2" points="240.4,328.7 253.4,315.7 265.9,328.2 266.4,328.7 "/>
<polyline points="210.4,328.7 223.4,315.7 235.9,328.2 236.4,328.7 "/>
<polyline class="st2" points="210.4,328.7 223.4,315.7 235.9,328.2 236.4,328.7 "/>
<polyline points="180.4,328.7 193.4,315.7 205.9,328.2 206.4,328.7 "/>
<polyline class="st2" points="180.4,328.7 193.4,315.7 205.9,328.2 206.4,328.7 "/>
<polyline points="150.4,328.7 163.4,315.7 175.9,328.2 176.4,328.7 "/>
<polyline class="st2" points="150.4,328.7 163.4,315.7 175.9,328.2 176.4,328.7 "/>
<polyline points="120.3,328.7 133.4,315.7 145.9,328.2 146.4,328.7 "/>
<polyline class="st2" points="120.3,328.7 133.4,315.7 145.9,328.2 146.4,328.7 "/>
<polyline points="90.3,328.7 103.3,315.7 115.8,328.2 116.3,328.7 "/>
<polyline class="st2" points="90.3,328.7 103.3,315.7 115.8,328.2 116.3,328.7 "/>
<polyline points="60.3,328.7 73.3,315.7 85.8,328.2 86.3,328.7 "/>
<polyline class="st2" points="60.3,328.7 73.3,315.7 85.8,328.2 86.3,328.7 "/>
<polyline points="30.4,328.7 43.3,315.7 55.8,328.2 56.3,328.7 "/>
<polyline class="st2" points="30.4,328.7 43.3,315.7 55.8,328.2 56.3,328.7 "/>
<polyline points="0.3,328.7 13.4,315.7 25.9,328.2 26.4,328.7 "/>
<polyline class="st2" points="0.3,328.7 13.4,315.7 25.9,328.2 26.4,328.7 "/>
<polyline points="570.3,283.7 583.3,270.7 595.8,283.2 596.3,283.7 "/>
<polyline class="st2" points="570.3,283.7 583.3,270.7 595.8,283.2 596.3,283.7 "/>
<polyline points="540.3,283.7 553.3,270.7 565.8,283.2 566.3,283.7 "/>
<polyline class="st2" points="540.3,283.7 553.3,270.7 565.8,283.2 566.3,283.7 "/>
<polyline points="510.4,283.7 523.3,270.7 535.8,283.2 536.3,283.7 "/>
<polyline class="st2" points="510.4,283.7 523.3,270.7 535.8,283.2 536.3,283.7 "/>
<polyline points="480.4,283.7 493.4,270.7 505.9,283.2 506.4,283.7 "/>
<polyline class="st2" points="480.4,283.7 493.4,270.7 505.9,283.2 506.4,283.7 "/>
<polyline points="450.4,283.7 463.4,270.7 475.9,283.2 476.4,283.7 "/>
<polyline class="st2" points="450.4,283.7 463.4,270.7 475.9,283.2 476.4,283.7 "/>
<polyline points="420.4,283.7 433.4,270.7 445.9,283.2 446.4,283.7 "/>
<polyline class="st2" points="420.4,283.7 433.4,270.7 445.9,283.2 446.4,283.7 "/>
<polyline points="390.4,283.7 403.4,270.7 415.9,283.2 416.4,283.7 "/>
<polyline class="st2" points="390.4,283.7 403.4,270.7 415.9,283.2 416.4,283.7 "/>
<polyline points="360.4,283.7 373.4,270.7 385.9,283.2 386.4,283.7 "/>
<polyline class="st2" points="360.4,283.7 373.4,270.7 385.9,283.2 386.4,283.7 "/>
<polyline points="330.4,283.7 343.4,270.7 355.9,283.2 356.4,283.7 "/>
<polyline class="st2" points="330.4,283.7 343.4,270.7 355.9,283.2 356.4,283.7 "/>
<polyline points="300.4,283.7 313.4,270.7 325.9,283.2 326.4,283.7 "/>
<polyline class="st2" points="300.4,283.7 313.4,270.7 325.9,283.2 326.4,283.7 "/>
<polyline points="270.4,283.7 283.4,270.7 295.9,283.2 296.4,283.7 "/>
<polyline class="st2" points="270.4,283.7 283.4,270.7 295.9,283.2 296.4,283.7 "/>
<polyline points="240.4,283.7 253.4,270.7 265.9,283.2 266.4,283.7 "/>
<polyline class="st2" points="240.4,283.7 253.4,270.7 265.9,283.2 266.4,283.7 "/>
<polyline points="210.4,283.7 223.4,270.7 235.9,283.2 236.4,283.7 "/>
<polyline class="st2" points="210.4,283.7 223.4,270.7 235.9,283.2 236.4,283.7 "/>
<polyline points="180.4,283.7 193.4,270.7 205.9,283.2 206.4,283.7 "/>
<polyline class="st2" points="180.4,283.7 193.4,270.7 205.9,283.2 206.4,283.7 "/>
<polyline points="150.4,283.7 163.4,270.7 175.9,283.2 176.4,283.7 "/>
<polyline class="st2" points="150.4,283.7 163.4,270.7 175.9,283.2 176.4,283.7 "/>
<polyline points="120.3,283.7 133.4,270.7 145.9,283.2 146.4,283.7 "/>
<polyline class="st2" points="120.3,283.7 133.4,270.7 145.9,283.2 146.4,283.7 "/>
<polyline points="90.3,283.7 103.3,270.7 115.8,283.2 116.3,283.7 "/>
<polyline class="st2" points="90.3,283.7 103.3,270.7 115.8,283.2 116.3,283.7 "/>
<polyline points="60.3,283.7 73.3,270.7 85.8,283.2 86.3,283.7 "/>
<polyline class="st2" points="60.3,283.7 73.3,270.7 85.8,283.2 86.3,283.7 "/>
<polyline points="30.4,283.7 43.3,270.7 55.8,283.2 56.3,283.7 "/>
<polyline class="st2" points="30.4,283.7 43.3,270.7 55.8,283.2 56.3,283.7 "/>
<polyline points="0.3,283.7 13.4,270.7 25.9,283.2 26.4,283.7 "/>
<polyline class="st2" points="0.3,283.7 13.4,270.7 25.9,283.2 26.4,283.7 "/>
<polyline points="570.3,238.7 583.3,225.7 595.8,238.2 596.3,238.7 "/>
<polyline class="st2" points="570.3,238.7 583.3,225.7 595.8,238.2 596.3,238.7 "/>
<polyline points="540.3,238.7 553.3,225.7 565.8,238.2 566.3,238.7 "/>
<polyline class="st2" points="540.3,238.7 553.3,225.7 565.8,238.2 566.3,238.7 "/>
<polyline points="510.4,238.7 523.3,225.7 535.8,238.2 536.3,238.7 "/>
<polyline class="st2" points="510.4,238.7 523.3,225.7 535.8,238.2 536.3,238.7 "/>
<polyline points="480.4,238.7 493.4,225.7 505.9,238.2 506.4,238.7 "/>
<polyline class="st2" points="480.4,238.7 493.4,225.7 505.9,238.2 506.4,238.7 "/>
<polyline points="450.4,238.7 463.4,225.7 475.9,238.2 476.4,238.7 "/>
<polyline class="st2" points="450.4,238.7 463.4,225.7 475.9,238.2 476.4,238.7 "/>
<polyline points="420.4,238.7 433.4,225.7 445.9,238.2 446.4,238.7 "/>
<polyline class="st2" points="420.4,238.7 433.4,225.7 445.9,238.2 446.4,238.7 "/>
<polyline points="390.4,238.7 403.4,225.7 415.9,238.2 416.4,238.7 "/>
<polyline class="st2" points="390.4,238.7 403.4,225.7 415.9,238.2 416.4,238.7 "/>
<polyline points="360.4,238.7 373.4,225.7 385.9,238.2 386.4,238.7 "/>
<polyline class="st2" points="360.4,238.7 373.4,225.7 385.9,238.2 386.4,238.7 "/>
<polyline points="330.4,238.7 343.4,225.7 355.9,238.2 356.4,238.7 "/>
<polyline class="st2" points="330.4,238.7 343.4,225.7 355.9,238.2 356.4,238.7 "/>
<polyline points="300.4,238.7 313.4,225.7 325.9,238.2 326.4,238.7 "/>
<polyline class="st2" points="300.4,238.7 313.4,225.7 325.9,238.2 326.4,238.7 "/>
<polyline points="270.4,238.7 283.4,225.7 295.9,238.2 296.4,238.7 "/>
<polyline class="st2" points="270.4,238.7 283.4,225.7 295.9,238.2 296.4,238.7 "/>
<polyline points="240.4,238.7 253.4,225.7 265.9,238.2 266.4,238.7 "/>
<polyline class="st2" points="240.4,238.7 253.4,225.7 265.9,238.2 266.4,238.7 "/>
<polyline points="210.4,238.7 223.4,225.7 235.9,238.2 236.4,238.7 "/>
<polyline class="st2" points="210.4,238.7 223.4,225.7 235.9,238.2 236.4,238.7 "/>
<polyline points="180.4,238.7 193.4,225.7 205.9,238.2 206.4,238.7 "/>
<polyline class="st2" points="180.4,238.7 193.4,225.7 205.9,238.2 206.4,238.7 "/>
<polyline points="150.4,238.7 163.4,225.7 175.9,238.2 176.4,238.7 "/>
<polyline class="st2" points="150.4,238.7 163.4,225.7 175.9,238.2 176.4,238.7 "/>
<polyline points="120.3,238.7 133.4,225.7 145.9,238.2 146.4,238.7 "/>
<polyline class="st2" points="120.3,238.7 133.4,225.7 145.9,238.2 146.4,238.7 "/>
<polyline points="90.3,238.7 103.3,225.7 115.8,238.2 116.3,238.7 "/>
<polyline class="st2" points="90.3,238.7 103.3,225.7 115.8,238.2 116.3,238.7 "/>
<polyline points="60.3,238.7 73.3,225.7 85.8,238.2 86.3,238.7 "/>
<polyline class="st2" points="60.3,238.7 73.3,225.7 85.8,238.2 86.3,238.7 "/>
<polyline points="30.4,238.7 43.3,225.7 55.8,238.2 56.3,238.7 "/>
<polyline class="st2" points="30.4,238.7 43.3,225.7 55.8,238.2 56.3,238.7 "/>
<polyline points="0.3,238.7 13.4,225.7 25.9,238.2 26.4,238.7 "/>
<polyline class="st2" points="0.3,238.7 13.4,225.7 25.9,238.2 26.4,238.7 "/>
<polyline points="570.3,193.7 583.3,180.7 595.8,193.2 596.3,193.7 "/>
<polyline class="st2" points="570.3,193.7 583.3,180.7 595.8,193.2 596.3,193.7 "/>
<polyline points="540.3,193.7 553.3,180.7 565.8,193.2 566.3,193.7 "/>
<polyline class="st2" points="540.3,193.7 553.3,180.7 565.8,193.2 566.3,193.7 "/>
<polyline points="510.4,193.7 523.3,180.7 535.8,193.2 536.3,193.7 "/>
<polyline class="st2" points="510.4,193.7 523.3,180.7 535.8,193.2 536.3,193.7 "/>
<polyline points="480.4,193.7 493.4,180.7 505.9,193.2 506.4,193.7 "/>
<polyline class="st2" points="480.4,193.7 493.4,180.7 505.9,193.2 506.4,193.7 "/>
<polyline points="450.4,193.7 463.4,180.7 475.9,193.2 476.4,193.7 "/>
<polyline class="st2" points="450.4,193.7 463.4,180.7 475.9,193.2 476.4,193.7 "/>
<polyline points="420.4,193.7 433.4,180.7 445.9,193.2 446.4,193.7 "/>
<polyline class="st2" points="420.4,193.7 433.4,180.7 445.9,193.2 446.4,193.7 "/>
<polyline points="390.4,193.7 403.4,180.7 415.9,193.2 416.4,193.7 "/>
<polyline class="st2" points="390.4,193.7 403.4,180.7 415.9,193.2 416.4,193.7 "/>
<polyline points="360.4,193.7 373.4,180.7 385.9,193.2 386.4,193.7 "/>
<polyline class="st2" points="360.4,193.7 373.4,180.7 385.9,193.2 386.4,193.7 "/>
<polyline points="330.4,193.7 343.4,180.7 355.9,193.2 356.4,193.7 "/>
<polyline class="st2" points="330.4,193.7 343.4,180.7 355.9,193.2 356.4,193.7 "/>
<polyline points="300.4,193.7 313.4,180.7 325.9,193.2 326.4,193.7 "/>
<polyline class="st2" points="300.4,193.7 313.4,180.7 325.9,193.2 326.4,193.7 "/>
<polyline points="270.4,193.7 283.4,180.7 295.9,193.2 296.4,193.7 "/>
<polyline class="st2" points="270.4,193.7 283.4,180.7 295.9,193.2 296.4,193.7 "/>
<polyline points="240.4,193.7 253.4,180.7 265.9,193.2 266.4,193.7 "/>
<polyline class="st2" points="240.4,193.7 253.4,180.7 265.9,193.2 266.4,193.7 "/>
<polyline points="210.4,193.7 223.4,180.7 235.9,193.2 236.4,193.7 "/>
<polyline class="st2" points="210.4,193.7 223.4,180.7 235.9,193.2 236.4,193.7 "/>
<polyline points="180.4,193.7 193.4,180.7 205.9,193.2 206.4,193.7 "/>
<polyline class="st2" points="180.4,193.7 193.4,180.7 205.9,193.2 206.4,193.7 "/>
<polyline class="st3" points="150.4,193.7 163.4,180.7 175.9,193.2 176.4,193.7 "/>
<polyline class="st3" points="150.4,193.7 163.4,180.7 175.9,193.2 176.4,193.7 "/>
<polyline class="st4" points="120.3,193.7 133.4,180.7 145.9,193.2 146.4,193.7 "/>
<polyline class="st4" points="120.3,193.7 133.4,180.7 145.9,193.2 146.4,193.7 "/>
<polyline class="st4" points="90.3,193.7 103.3,180.7 115.8,193.2 116.3,193.7 "/>
<polyline class="st4" points="90.3,193.7 103.3,180.7 115.8,193.2 116.3,193.7 "/>
<polyline class="st4" points="60.3,193.7 73.3,180.7 85.8,193.2 86.3,193.7 "/>
<polyline class="st4" points="60.3,193.7 73.3,180.7 85.8,193.2 86.3,193.7 "/>
<polyline class="st4" points="30.4,193.7 43.3,180.7 55.8,193.2 56.3,193.7 "/>
<polyline class="st4" points="30.4,193.7 43.3,180.7 55.8,193.2 56.3,193.7 "/>
<polyline class="st4" points="0.3,193.7 13.4,180.7 25.9,193.2 26.4,193.7 "/>
<polyline class="st4" points="0.3,193.7 13.4,180.7 25.9,193.2 26.4,193.7 "/>
<polyline points="570.3,148.7 583.3,135.7 595.8,148.2 596.3,148.7 "/>
<polyline class="st2" points="570.3,148.7 583.3,135.7 595.8,148.2 596.3,148.7 "/>
<polyline points="540.3,148.7 553.3,135.7 565.8,148.2 566.3,148.7 "/>
<polyline class="st2" points="540.3,148.7 553.3,135.7 565.8,148.2 566.3,148.7 "/>
<polyline points="510.4,148.7 523.3,135.7 535.8,148.2 536.3,148.7 "/>
<polyline class="st2" points="510.4,148.7 523.3,135.7 535.8,148.2 536.3,148.7 "/>
<polyline points="480.4,148.7 493.4,135.7 505.9,148.2 506.4,148.7 "/>
<polyline class="st2" points="480.4,148.7 493.4,135.7 505.9,148.2 506.4,148.7 "/>
<polyline points="450.4,148.7 463.4,135.7 475.9,148.2 476.4,148.7 "/>
<polyline class="st2" points="450.4,148.7 463.4,135.7 475.9,148.2 476.4,148.7 "/>
<polyline points="420.4,148.7 433.4,135.7 445.9,148.2 446.4,148.7 "/>
<polyline class="st2" points="420.4,148.7 433.4,135.7 445.9,148.2 446.4,148.7 "/>
<polyline points="390.4,148.7 403.4,135.7 415.9,148.2 416.4,148.7 "/>
<polyline class="st2" points="390.4,148.7 403.4,135.7 415.9,148.2 416.4,148.7 "/>
<polyline points="360.4,148.7 373.4,135.7 385.9,148.2 386.4,148.7 "/>
<polyline class="st2" points="360.4,148.7 373.4,135.7 385.9,148.2 386.4,148.7 "/>
<polyline points="330.4,148.7 343.4,135.7 355.9,148.2 356.4,148.7 "/>
<polyline class="st2" points="330.4,148.7 343.4,135.7 355.9,148.2 356.4,148.7 "/>
<polyline points="300.4,148.7 313.4,135.7 325.9,148.2 326.4,148.7 "/>
<polyline class="st2" points="300.4,148.7 313.4,135.7 325.9,148.2 326.4,148.7 "/>
<polyline points="270.4,148.7 283.4,135.7 295.9,148.2 296.4,148.7 "/>
<polyline class="st2" points="270.4,148.7 283.4,135.7 295.9,148.2 296.4,148.7 "/>
<polyline points="240.4,148.7 253.4,135.7 265.9,148.2 266.4,148.7 "/>
<polyline class="st2" points="240.4,148.7 253.4,135.7 265.9,148.2 266.4,148.7 "/>
<polyline points="210.4,148.7 223.4,135.7 235.9,148.2 236.4,148.7 "/>
<polyline class="st2" points="210.4,148.7 223.4,135.7 235.9,148.2 236.4,148.7 "/>
<polyline points="180.4,148.7 193.4,135.7 205.9,148.2 206.4,148.7 "/>
<polyline class="st2" points="180.4,148.7 193.4,135.7 205.9,148.2 206.4,148.7 "/>
<polyline class="st3" points="150.4,148.7 163.4,135.7 175.9,148.2 176.4,148.7 "/>
<polyline class="st3" points="150.4,148.7 163.4,135.7 175.9,148.2 176.4,148.7 "/>
<polyline class="st4" points="120.3,148.7 133.4,135.7 145.9,148.2 146.4,148.7 "/>
<polyline class="st4" points="120.3,148.7 133.4,135.7 145.9,148.2 146.4,148.7 "/>
<polyline class="st4" points="90.3,148.7 103.3,135.7 115.8,148.2 116.3,148.7 "/>
<polyline class="st4" points="90.3,148.7 103.3,135.7 115.8,148.2 116.3,148.7 "/>
<polyline class="st4" points="60.3,148.7 73.3,135.7 85.8,148.2 86.3,148.7 "/>
<polyline class="st4" points="60.3,148.7 73.3,135.7 85.8,148.2 86.3,148.7 "/>
<polyline class="st4" points="30.4,148.7 43.3,135.7 55.8,148.2 56.3,148.7 "/>
<polyline class="st4" points="30.4,148.7 43.3,135.7 55.8,148.2 56.3,148.7 "/>
<polyline class="st4" points="0.3,148.7 13.4,135.7 25.9,148.2 26.4,148.7 "/>
<polyline class="st4" points="0.3,148.7 13.4,135.7 25.9,148.2 26.4,148.7 "/>
<polyline points="570.3,103.7 583.3,90.7 595.8,103.2 596.3,103.7 "/>
<polyline class="st2" points="570.3,103.7 583.3,90.7 595.8,103.2 596.3,103.7 "/>
<polyline points="540.3,103.7 553.3,90.7 565.8,103.2 566.3,103.7 "/>
<polyline class="st2" points="540.3,103.7 553.3,90.7 565.8,103.2 566.3,103.7 "/>
<polyline points="510.4,103.7 523.3,90.7 535.8,103.2 536.3,103.7 "/>
<polyline class="st2" points="510.4,103.7 523.3,90.7 535.8,103.2 536.3,103.7 "/>
<polyline points="480.4,103.7 493.4,90.7 505.9,103.2 506.4,103.7 "/>
<polyline class="st2" points="480.4,103.7 493.4,90.7 505.9,103.2 506.4,103.7 "/>
<polyline points="450.4,103.7 463.4,90.7 475.9,103.2 476.4,103.7 "/>
<polyline class="st2" points="450.4,103.7 463.4,90.7 475.9,103.2 476.4,103.7 "/>
<polyline points="420.4,103.7 433.4,90.7 445.9,103.2 446.4,103.7 "/>
<polyline class="st2" points="420.4,103.7 433.4,90.7 445.9,103.2 446.4,103.7 "/>
<polyline points="390.4,103.7 403.4,90.7 415.9,103.2 416.4,103.7 "/>
<polyline class="st2" points="390.4,103.7 403.4,90.7 415.9,103.2 416.4,103.7 "/>
<polyline points="360.4,103.7 373.4,90.7 385.9,103.2 386.4,103.7 "/>
<polyline class="st2" points="360.4,103.7 373.4,90.7 385.9,103.2 386.4,103.7 "/>
<polyline points="330.4,103.7 343.4,90.7 355.9,103.2 356.4,103.7 "/>
<polyline class="st2" points="330.4,103.7 343.4,90.7 355.9,103.2 356.4,103.7 "/>
<polyline points="300.4,103.7 313.4,90.7 325.9,103.2 326.4,103.7 "/>
<polyline class="st2" points="300.4,103.7 313.4,90.7 325.9,103.2 326.4,103.7 "/>
<polyline points="270.4,103.7 283.4,90.7 295.9,103.2 296.4,103.7 "/>
<polyline class="st2" points="270.4,103.7 283.4,90.7 295.9,103.2 296.4,103.7 "/>
<polyline points="240.4,103.7 253.4,90.7 265.9,103.2 266.4,103.7 "/>
<polyline class="st2" points="240.4,103.7 253.4,90.7 265.9,103.2 266.4,103.7 "/>
<polyline points="210.4,103.7 223.4,90.7 235.9,103.2 236.4,103.7 "/>
<polyline class="st2" points="210.4,103.7 223.4,90.7 235.9,103.2 236.4,103.7 "/>
<polyline points="180.4,103.7 193.4,90.7 205.9,103.2 206.4,103.7 "/>
<polyline class="st2" points="180.4,103.7 193.4,90.7 205.9,103.2 206.4,103.7 "/>
<polyline class="st3" points="150.4,103.7 163.4,90.7 175.9,103.2 176.4,103.7 "/>
<polyline class="st3" points="150.4,103.7 163.4,90.7 175.9,103.2 176.4,103.7 "/>
<polyline class="st4" points="120.3,103.7 133.4,90.7 145.9,103.2 146.4,103.7 "/>
<polyline class="st4" points="120.3,103.7 133.4,90.7 145.9,103.2 146.4,103.7 "/>
<polyline class="st4" points="90.3,103.7 103.3,90.7 115.8,103.2 116.3,103.7 "/>
<polyline class="st4" points="90.3,103.7 103.3,90.7 115.8,103.2 116.3,103.7 "/>
<polyline class="st4" points="60.3,103.7 73.3,90.7 85.8,103.2 86.3,103.7 "/>
<polyline class="st4" points="60.3,103.7 73.3,90.7 85.8,103.2 86.3,103.7 "/>
<polyline class="st4" points="30.4,103.7 43.3,90.7 55.8,103.2 56.3,103.7 "/>
<polyline class="st4" points="30.4,103.7 43.3,90.7 55.8,103.2 56.3,103.7 "/>
<polyline class="st4" points="0.3,103.7 13.4,90.7 25.9,103.2 26.4,103.7 "/>
<polyline class="st4" points="0.3,103.7 13.4,90.7 25.9,103.2 26.4,103.7 "/>
<polyline points="570.3,58.7 583.3,45.7 595.8,58.2 596.3,58.7 "/>
<polyline class="st2" points="570.3,58.7 583.3,45.7 595.8,58.2 596.3,58.7 "/>
<polyline points="540.3,58.7 553.3,45.7 565.8,58.2 566.3,58.7 "/>
<polyline class="st2" points="540.3,58.7 553.3,45.7 565.8,58.2 566.3,58.7 "/>
<polyline points="510.4,58.7 523.3,45.7 535.8,58.2 536.3,58.7 "/>
<polyline class="st2" points="510.4,58.7 523.3,45.7 535.8,58.2 536.3,58.7 "/>
<polyline points="480.4,58.7 493.4,45.7 505.9,58.2 506.4,58.7 "/>
<polyline class="st2" points="480.4,58.7 493.4,45.7 505.9,58.2 506.4,58.7 "/>
<polyline points="450.4,58.7 463.4,45.7 475.9,58.2 476.4,58.7 "/>
<polyline class="st2" points="450.4,58.7 463.4,45.7 475.9,58.2 476.4,58.7 "/>
<polyline points="420.4,58.7 433.4,45.7 445.9,58.2 446.4,58.7 "/>
<polyline class="st2" points="420.4,58.7 433.4,45.7 445.9,58.2 446.4,58.7 "/>
<polyline points="390.4,58.7 403.4,45.7 415.9,58.2 416.4,58.7 "/>
<polyline class="st2" points="390.4,58.7 403.4,45.7 415.9,58.2 416.4,58.7 "/>
<polyline points="360.4,58.7 373.4,45.7 385.9,58.2 386.4,58.7 "/>
<polyline class="st2" points="360.4,58.7 373.4,45.7 385.9,58.2 386.4,58.7 "/>
<polyline points="330.4,58.7 343.4,45.7 355.9,58.2 356.4,58.7 "/>
<polyline class="st2" points="330.4,58.7 343.4,45.7 355.9,58.2 356.4,58.7 "/>
<polyline points="300.4,58.7 313.4,45.7 325.9,58.2 326.4,58.7 "/>
<polyline class="st2" points="300.4,58.7 313.4,45.7 325.9,58.2 326.4,58.7 "/>
<polyline points="270.4,58.7 283.4,45.7 295.9,58.2 296.4,58.7 "/>
<polyline class="st2" points="270.4,58.7 283.4,45.7 295.9,58.2 296.4,58.7 "/>
<polyline points="240.4,58.7 253.4,45.7 265.9,58.2 266.4,58.7 "/>
<polyline class="st2" points="240.4,58.7 253.4,45.7 265.9,58.2 266.4,58.7 "/>
<polyline points="210.4,58.7 223.4,45.7 235.9,58.2 236.4,58.7 "/>
<polyline class="st2" points="210.4,58.7 223.4,45.7 235.9,58.2 236.4,58.7 "/>
<polyline points="180.4,58.7 193.4,45.7 205.9,58.2 206.4,58.7 "/>
<polyline class="st2" points="180.4,58.7 193.4,45.7 205.9,58.2 206.4,58.7 "/>
<polyline class="st3" points="150.4,58.7 163.4,45.7 175.9,58.2 176.4,58.7 "/>
<polyline class="st3" points="150.4,58.7 163.4,45.7 175.9,58.2 176.4,58.7 "/>
<polyline class="st4" points="120.3,58.7 133.4,45.7 145.9,58.2 146.4,58.7 "/>
<polyline class="st4" points="120.3,58.7 133.4,45.7 145.9,58.2 146.4,58.7 "/>
<polyline class="st4" points="90.3,58.7 103.3,45.7 115.8,58.2 116.3,58.7 "/>
<polyline class="st4" points="90.3,58.7 103.3,45.7 115.8,58.2 116.3,58.7 "/>
<polyline class="st4" points="60.3,58.7 73.3,45.7 85.8,58.2 86.3,58.7 "/>
<polyline class="st4" points="60.3,58.7 73.3,45.7 85.8,58.2 86.3,58.7 "/>
<polyline class="st4" points="30.4,58.7 43.3,45.7 55.8,58.2 56.3,58.7 "/>
<polyline class="st4" points="30.4,58.7 43.3,45.7 55.8,58.2 56.3,58.7 "/>
<polyline class="st4" points="0.3,58.7 13.4,45.7 25.9,58.2 26.4,58.7 "/>
<polyline class="st4" points="0.3,58.7 13.4,45.7 25.9,58.2 26.4,58.7 "/>
<polyline points="570.3,13.7 583.3,0.7 595.8,13.2 596.3,13.7 "/>
<polyline class="st2" points="570.3,13.7 583.3,0.7 595.8,13.2 596.3,13.7 "/>
<polyline points="540.3,13.7 553.3,0.7 565.8,13.2 566.3,13.7 "/>
<polyline class="st2" points="540.3,13.7 553.3,0.7 565.8,13.2 566.3,13.7 "/>
<polyline points="510.4,13.7 523.3,0.7 535.8,13.2 536.3,13.7 "/>
<polyline class="st2" points="510.4,13.7 523.3,0.7 535.8,13.2 536.3,13.7 "/>
<polyline points="480.4,13.7 493.4,0.7 505.9,13.2 506.4,13.7 "/>
<polyline class="st2" points="480.4,13.7 493.4,0.7 505.9,13.2 506.4,13.7 "/>
<polyline points="450.4,13.7 463.4,0.7 475.9,13.2 476.4,13.7 "/>
<polyline class="st2" points="450.4,13.7 463.4,0.7 475.9,13.2 476.4,13.7 "/>
<polyline points="420.4,13.7 433.4,0.7 445.9,13.2 446.4,13.7 "/>
<polyline class="st2" points="420.4,13.7 433.4,0.7 445.9,13.2 446.4,13.7 "/>
<polyline points="390.4,13.7 403.4,0.7 415.9,13.2 416.4,13.7 "/>
<polyline class="st2" points="390.4,13.7 403.4,0.7 415.9,13.2 416.4,13.7 "/>
<polyline points="360.4,13.7 373.4,0.7 385.9,13.2 386.4,13.7 "/>
<polyline class="st2" points="360.4,13.7 373.4,0.7 385.9,13.2 386.4,13.7 "/>
<polyline points="330.4,13.7 343.4,0.7 355.9,13.2 356.4,13.7 "/>
<polyline class="st2" points="330.4,13.7 343.4,0.7 355.9,13.2 356.4,13.7 "/>
<polyline points="300.4,13.7 313.4,0.7 325.9,13.2 326.4,13.7 "/>
<polyline class="st2" points="300.4,13.7 313.4,0.7 325.9,13.2 326.4,13.7 "/>
<polyline points="270.4,13.7 283.4,0.7 295.9,13.2 296.4,13.7 "/>
<polyline class="st2" points="270.4,13.7 283.4,0.7 295.9,13.2 296.4,13.7 "/>
<polyline points="240.4,13.7 253.4,0.7 265.9,13.2 266.4,13.7 "/>
<polyline class="st2" points="240.4,13.7 253.4,0.7 265.9,13.2 266.4,13.7 "/>
<polyline points="210.4,13.7 223.4,0.7 235.9,13.2 236.4,13.7 "/>
<polyline class="st2" points="210.4,13.7 223.4,0.7 235.9,13.2 236.4,13.7 "/>
<polyline points="180.4,13.7 193.4,0.7 205.9,13.2 206.4,13.7 "/>
<polyline class="st2" points="180.4,13.7 193.4,0.7 205.9,13.2 206.4,13.7 "/>
<polyline class="st3" points="150.4,13.7 163.4,0.7 175.9,13.2 176.4,13.7 "/>
<polyline class="st3" points="150.4,13.7 163.4,0.7 175.9,13.2 176.4,13.7 "/>
<polyline class="st4" points="120.3,13.7 133.4,0.7 145.9,13.2 146.4,13.7 "/>
<polyline class="st4" points="120.3,13.7 133.4,0.7 145.9,13.2 146.4,13.7 "/>
<polyline class="st4" points="90.3,13.7 103.3,0.7 115.8,13.2 116.3,13.7 "/>
<polyline class="st4" points="90.3,13.7 103.3,0.7 115.8,13.2 116.3,13.7 "/>
<polyline class="st4" points="60.3,13.7 73.3,0.7 85.8,13.2 86.3,13.7 "/>
<polyline class="st4" points="60.3,13.7 73.3,0.7 85.8,13.2 86.3,13.7 "/>
<polyline class="st4" points="30.4,13.7 43.3,0.7 55.8,13.2 56.3,13.7 "/>
<polyline class="st4" points="30.4,13.7 43.3,0.7 55.8,13.2 56.3,13.7 "/>
<polyline class="st4" points="0.3,13.7 13.4,0.7 25.9,13.2 26.4,13.7 "/>
<polyline class="st4" points="0.3,13.7 13.4,0.7 25.9,13.2 26.4,13.7 "/>
<rect x="121.3" y="193.7" class="st4" width="24" height="24"/>
<path class="st4" d="M144.9,194.2v23h-23v-23H144.9 M145.9,193.2h-25v25h25V193.2z"/>
<rect x="91.3" y="193.7" class="st4" width="24" height="24"/>
<path class="st4" d="M114.8,194.2v23h-23v-23H114.8 M115.8,193.2h-25v25h25V193.2z"/>
<rect x="61.3" y="193.7" class="st4" width="24" height="24"/>
<path class="st4" d="M84.8,194.2v23h-23v-23H84.8 M85.8,193.2h-25v25h25V193.2z"/>
<rect x="31.4" y="193.7" class="st4" width="24" height="24"/>
<path class="st4" d="M54.8,194.2v23h-23v-23H54.8 M55.8,193.2h-25v25h25V193.2z"/>
<rect x="1.4" y="193.7" class="st4" width="24" height="24"/>
<path class="st4" d="M24.9,194.2v23h-23v-23H24.9 M25.9,193.2h-25v25h25V193.2z"/>
<rect x="121.3" y="148.7" class="st4" width="24" height="24"/>
<path class="st4" d="M144.9,149.2v23h-23v-23H144.9 M145.9,148.2h-25v25h25V148.2z"/>
<rect x="91.3" y="148.7" class="st4" width="24" height="24"/>
<path class="st4" d="M114.8,149.2v23h-23v-23H114.8 M115.8,148.2h-25v25h25V148.2z"/>
<rect x="61.3" y="148.7" class="st4" width="24" height="24"/>
<path class="st4" d="M84.8,149.2v23h-23v-23H84.8 M85.8,148.2h-25v25h25V148.2z"/>
<rect x="31.4" y="148.7" class="st4" width="24" height="24"/>
<path class="st4" d="M54.8,149.2v23h-23v-23H54.8 M55.8,148.2h-25v25h25V148.2z"/>
<rect x="1.4" y="148.7" class="st4" width="24" height="24"/>
<path class="st4" d="M24.9,149.2v23h-23v-23H24.9 M25.9,148.2h-25v25h25V148.2z"/>
<rect x="121.3" y="103.7" class="st4" width="24" height="24"/>
<path class="st4" d="M144.9,104.2v23h-23v-23H144.9 M145.9,103.2h-25v25h25C145.9,128.2,145.9,103.2,145.9,103.2z"/>
<rect x="91.3" y="103.7" class="st4" width="24" height="24"/>
<path class="st4" d="M114.8,104.2v23h-23v-23H114.8 M115.8,103.2h-25v25h25C115.8,128.2,115.8,103.2,115.8,103.2z"/>
<rect x="61.3" y="103.7" class="st4" width="24" height="24"/>
<path class="st4" d="M84.8,104.2v23h-23v-23H84.8 M85.8,103.2h-25v25h25C85.8,128.2,85.8,103.2,85.8,103.2z"/>
<rect x="31.4" y="103.7" class="st4" width="24" height="24"/>
<path class="st4" d="M54.8,104.2v23h-23v-23H54.8 M55.8,103.2h-25v25h25C55.8,128.2,55.8,103.2,55.8,103.2z"/>
<rect x="1.4" y="103.7" class="st4" width="24" height="24"/>
<path class="st4" d="M24.9,104.2v23h-23v-23H24.9 M25.9,103.2h-25v25h25C25.9,128.2,25.9,103.2,25.9,103.2z"/>
<rect x="121.3" y="58.7" class="st4" width="24" height="24"/>
<path class="st4" d="M144.9,59.2v23h-23v-23H144.9 M145.9,58.2h-25v25h25V58.2z"/>
<rect x="91.3" y="58.7" class="st4" width="24" height="24"/>
<path class="st4" d="M114.8,59.2v23h-23v-23H114.8 M115.8,58.2h-25v25h25V58.2z"/>
<rect x="61.3" y="58.7" class="st4" width="24" height="24"/>
<path class="st4" d="M84.8,59.2v23h-23v-23H84.8 M85.8,58.2h-25v25h25V58.2z"/>
<rect x="31.4" y="58.7" class="st4" width="24" height="24"/>
<path class="st4" d="M54.8,59.2v23h-23v-23H54.8 M55.8,58.2h-25v25h25V58.2z"/>
<rect x="1.4" y="58.7" class="st4" width="24" height="24"/>
<path class="st4" d="M24.9,59.2v23h-23v-23H24.9 M25.9,58.2h-25v25h25V58.2z"/>
<path class="st4" d="M144.9,14.2v23h-23v-23L144.9,14.2 M145.9,13.2h-25v25h25V13.2z"/>
<rect x="121.3" y="13.7" class="st4" width="24" height="24"/>
<path class="st4" d="M114.8,14.2v23h-23v-23L114.8,14.2 M115.8,13.2h-25v25h25V13.2z"/>
<rect x="91.3" y="13.7" class="st4" width="24" height="24"/>
<path class="st4" d="M84.8,14.2v23h-23v-23L84.8,14.2 M85.8,13.2h-25v25h25V13.2z"/>
<rect x="61.3" y="13.7" class="st4" width="24" height="24"/>
<path class="st4" d="M54.8,14.2v23h-23v-23L54.8,14.2 M55.8,13.2h-25v25h25V13.2z"/>
<rect x="31.4" y="13.7" class="st4" width="24" height="24"/>
<path class="st4" d="M24.9,14.2v23h-23v-23L24.9,14.2 M25.9,13.2h-25v25h25V13.2z"/>
<rect x="1.4" y="13.7" class="st4" width="24" height="24"/>
<rect x="151.3" y="148.7" class="st1" width="24" height="24"/>
</svg>
